<svg xmlns="http://www.w3.org/2000/svg" id="Layer_1" data-name="Layer 1" viewBox="0 0 987 618"><defs><style>.cls-1{fill:#725640;}.cls-2{fill:#fff;}.cls-3{fill:#f4831f;}</style></defs><title>LION TRACK LOGO FINAL</title><path class="cls-1" d="M757.92,78.37c-2.62-2.27-5.82-1-8.1,1.15a24.68,24.68,0,0,0-5.5,6.86c-2.13,4.36-5.55,7.09-9.39,9.76a160.66,160.66,0,0,0-12.53,10.23c-2.86,2.47-5.44,5.26-8.3,7.74-8.9,7.7-17.7,15.53-26.89,22.87-4.61,3.69-10,6.41-15,9.56l-1-1.28q8.31-9.07,16.6-18.17a3.29,3.29,0,0,0-2.86-.25c-7.45,3.06-12.71,8.35-16.44,15.5-4.23,8.13-8,16.65-15.56,22.49-3.31,2.56-6.42,5.44-9.88,7.78-4.15,2.81-8.58,5.2-12.9,7.78l-1.11-1.1a41,41,0,0,1,.7-5.45c2.37-9.05,7.58-16.26,14.25-22.73a105.1,105.1,0,0,0,11.85-13.76,9,9,0,0,0-.36-11.38c-2.92-3.63-7-3.89-11.11-2.61a16.91,16.91,0,0,0-5.37,2.72c-5.71,4.51-9,10.39-8.94,17.81,0,5.37-2.07,9.44-7,11.83a6.65,6.65,0,0,0-4,6.87,19.31,19.31,0,0,1-.37,3.61c-1.88,13.21-8.27,24.51-15.12,35.59-9.09,14.67-25.76,21.51-42.94,18.71-18.47-3-32.53-21.51-36-39.24-1.45-7.32-.25-15.15-.25-23.43l-7.22,7.61c2.93-6.66,5.53-12.55,8.13-18.43l-.89-.71-11.58,8.87-.59-.69,9.12-12.32c-12.62,5.64-24.57,6-36.65-.4-11.66-6.13-19.82-15-23.36-28.14-2.42,14-10.73,23.33-23,28.76-12,5.35-24.51,6.8-36.7-.79l7,10.54-.35.3-13.34-11.6-.72.72L407,162c-.4.41-.81.82-1.22,1.22q-4.43-5.91-8.84-11.85c-.43.38-.88.75-1.3,1.13.26,1.29.52,2.59.77,3.89,3.25,16.57.64,32-8.88,46.14-13.68,20.3-39.89,25.36-59.44,10.71-14-10.47-22.28-25.2-25.38-42.17a53.3,53.3,0,0,0-10.15-22.53,18.81,18.81,0,0,0-3.11-2.76l-1.22,1,6.13,13.88a18.2,18.2,0,0,1-1.76-1.28c-1.06-1.05-2.1-2.11-3.11-3.2-6.93-7.46-8.27-16.77-8.7-26.38-.34-7.4-3.51-13-10.45-16a9.06,9.06,0,0,0-10.81,2.07c-3.19,3.3-4.14,7.31-1.92,11.16,2.12,3.67,5.17,6.82,8,10.08s6.16,5.82,8.37,9.3c3.74,5.9,6.82,12.23,10,18.48.44.87.25,2.89-.35,3.27a4.4,4.4,0,0,1-3.69.19,42.64,42.64,0,0,1-8.08-4.61c-12-9.23-22.73-19.49-28.8-33.93-3-7.18-9-11.79-17.08-14.66,2.7,7.58,11.4,9.59,13.53,18.2-9.42-5.93-18-11.24-28.21-4.56,1.65,5.78,4.64,10.59,10.12,13.47,3.7,2,7.59,3.56,11.32,5.47,2,1,3.78,2.3,6,3.66-1.7,1.14-3.13,1.65-3.87,2.67-1.35,1.85-3.46,4.25-3.09,6,.43,2.05,3,3.75,4.92,5.3a2.91,2.91,0,0,0,2.81-.52,3.15,3.15,0,0,0-.05-2.88c-.76-1.23-2.11-2.07-3-3.22a7.25,7.25,0,0,1-.77-2.3,5.93,5.93,0,0,1,2.52-.14,4.44,4.44,0,0,1,2.08,1.85c3,5.26,7.75,8.51,12.86,11.43a23.38,23.38,0,0,1,5.35,4.33,42.9,42.9,0,0,1,9,13.24c-4.09-1-7.46-2.18-10.9-2.5a6.2,6.2,0,0,0-4.91,2.22c-.61.93.51,3.35,1.37,4.81,1.41,2.42,3.23,4.6,5.26,7.41-6.32-1-11.63-2.46-16.95-2.49A37.29,37.29,0,0,0,228,199.25c-3.28,1.26-5,4.62-4.32,8.41s2.86,6.56,6.59,7.49a24.71,24.71,0,0,0,8,.58c12.54-1.07,23.13,2.39,31.72,12,2.9,3.26,6.81,5.7,10.49,8.18,6,4.06,12.2,7.85,18.31,11.76-4.56-1.08-8.57-3.26-12.81-4.76-5.22-1.84-10.58-3.6-15.93.2-.72.51-2.86-.37-4-1.14a49.08,49.08,0,0,1-5-4.49c-.42.49-.86,1-1.29,1.46l12.21,11.27c2.14-1.1,3.49-4.74,7.08-1.73,2.37,2,5.47,3.19,8.39,4.43,5,2.09,10.21,3.65,15.08,6,13,6.12,20.07,12.38,25.38,21.84-1.42-1.2-2.64-2.26-3.9-3.28-14.73-12-30-22.68-49.61-25.5-9.27-1.34-18,.09-26.84,2.23a8,8,0,0,0-3.74,2.29c-2.45,2.68-2.47,5.83-1.18,9.1.84,2.14,2.14,3.33,4.62,2.81,11.65-2.44,22.88.83,34.13,2.85a40.46,40.46,0,0,1,20.27,10.57,14.41,14.41,0,0,1,3.5,4.86c.42,1.05-.42,2.62-.68,4-.47.14-.95.29-1.43.42,3.44,3.55,6.41,7.76,10.41,10.47,6.81,4.61,14.25,8.29,21.45,12.31,4.57,2.56,9.17,5,13.77,7.55L348,322.8c-5.51-2.69-11.08-5.24-16.49-8.11-3.56-1.9-6.7-4.64-10.32-6.35a137.25,137.25,0,0,0-16.55-6.62,35.32,35.32,0,0,0-10.73-1.55,7.64,7.64,0,0,0-7.6,6.62c-.4,3.38,1.92,7.66,5.41,8.65,2.21.62,4.74.08,7.13,0,4.13-.1,8.35-.8,12.37-.18,4.77.73,9.76,1.86,14,4.11,11.39,6.08,22.4,12.85,33.56,19.34-.14.33-.28.64-.43,1-1.34-.39-2.69-.77-4-1.18-3-.91-5.9-2-8.92-2.67-1.18-.23-2.59.7-3.9,1.11a17,17,0,0,0,1.51,3.87,5.16,5.16,0,0,0,2.7,1.7c7.23,2.14,14.42,4.51,21.77,6.17,8.42,1.91,17,3.16,25.49,4.7,4.75.86,9.48,1.76,14.23,2.55,1.46.25,3,.21,5.38.35-2.3,2.52-3.92,4.12-5.34,5.88-3.51,4.37-3.41,9,.16,12.82,2.69,2.88,7.6,3.36,11.38-.26a34.71,34.71,0,0,0,8-11.84c1.59-4.06,4.35-6,7.51-8.46,4.2-3.2,9.25-6.7,11.16-11.23,3.8-9,12-11.17,17.25-14.91-4.53,5-10.43,10.89-15.65,17.36a54,54,0,0,1-14,12.72c-1.56.95-2.74,2.51-4.1,3.79.33.51.66,1,1,1.5,2.49-1.05,5.36-1.62,7.41-3.24a105.34,105.34,0,0,0,11.91-10.93,37.91,37.91,0,0,1,14.23-10.14c-8.64,6.5-16.87,13.39-22.76,22.6-.75,1.16-.81,2.75-1.2,4.15,1.57.12,3.64.94,4.59.23a104.52,104.52,0,0,0,8.69-7.78c2.84-2.63,5.25-6.5,8.6-7.68,10.71-3.78,21.33-3.54,30.5,4.5,5.57,4.88,11,9.95,16.55,14.83,3.54,3.1,7.55,5.62,12.43,5,1.78-.24,4.28-1.91,4.69-3.42.35-1.27-1.47-3.78-3-4.76a19.32,19.32,0,0,0-7.21-2.52c-10.27-1.7-16.51-9.8-24.48-15.14-.07-.05.08-.44.28-1.25,3.73,1.26,7.36,2.71,11.1,3.7,6.09,1.58,12.29,4.05,18.39,3.93,5.69-.12,11.42-2.85,17-4.93,9.49-3.55,18.56-8.63,28.31-10.93,10.56-2.5,21-5.08,31-9.28a52.46,52.46,0,0,1,12.89-3.38,21.28,21.28,0,0,1,9.09.9c3,.93,5.2.68,7.34-1.53,2.76-2.86,3.7-6.39,1.75-9.64a9.23,9.23,0,0,0-6.2-4.06c-3.22-.23-6.66.84-9.83,1.89-9.07,3-18.05,6.29-27.05,9.47a6.84,6.84,0,0,1,3-2.71c6.11-3.21,12.37-6.15,18.32-9.65s7.74-9.23,5-13.8c4.43-7.17,11-11.19,18.92-13.69,10.48-3.28,21-5.12,32-4a6,6,0,0,0,4.11-.83c4.74-3.9,4.36-10-1.13-12.73-4.17-2.09-8.86-4.18-13.36-4.27-6.62-.12-13.27,1.45-19.92,2.35,4.3-1.76,7.08-7.82,12.19-4.82l12.69-11c1.42.12,2.65.26,3.89.27.06,0,.4-1.47.14-1.68-.79-.63-2.12-1.62-2.7-1.34-2.92,1.39-6.16,2.67-8.34,4.91s-4.14,3.48-7.56,3.43a64.66,64.66,0,0,0-14.77,1.68c-3.84.83-7.46,2.68-11.18,4.09-.17-.31-.33-.62-.49-.93,7-4.25,14.07-8.46,21.06-12.77a17.17,17.17,0,0,0,4.66-3.61c8.34-10.66,18.16-17.57,32.71-15.27,3.3.52,7.23-.84,10.41-2.34a8.56,8.56,0,0,0,4.83-8.74c-.34-3.79-3.13-5.9-6.39-7.18a18.74,18.74,0,0,0-6.28-1.47c-11.72-.27-22.92,1.27-32.42,9.15-3,2.49-6.57,4.26-9.87,6.35l-.76-1.19c4.48-6.21,11.08-9.86,17.59-13.38,1.46.41,2.89.61,3.74,0a32.21,32.21,0,0,0,5.68-5.19c1.12-1.31,2.66-3.86,2.15-4.63a7.87,7.87,0,0,0-5.13-3.24c-2.4-.22-5,.83-7.4,1.49a29.45,29.45,0,0,0-4,1.85,40.16,40.16,0,0,1,1.5-5.45c2.22-4.88,5.26-9.1,10-12,5.89-3.56,12-6.8,16.15-12.68,1.61-2.29,3.11-1.13,4.41.42l-6.36,7c5,1.17,8.24-.65,9-4.24.74-3.35-2.37-6.38-7.65-7.14,1.41-1,2.6-1.84,3.81-2.64,6.54-4.31,13.2-8.44,19.55-13,1.82-1.31,2.93-3.78,4-5.91s.27-3.59-2.27-4-4.82-1-7.7-1.66c3.22-1.68,5.82-3.09,8.46-4.4,11.39-5.66,22.76-11.34,34.21-16.89,4.13-2,8.47-3.58,12.66-5.47a10.43,10.43,0,0,0,6.58-10.69c-.24-4.65-4.23-5.59-7.83-7.22a60.92,60.92,0,0,1,9.26-2.25,7,7,0,0,0,6.25-6.52,8.43,8.43,0,0,0-2.39-6.25M651.19,128.32l-13.75,5.36c3.76-7.49,9.59-9.47,13.75-5.36m-388.51-5c-1.75-2-1.76-4.22.3-5.82,2.82-2.18,5.19-.63,7.35,1.65l-7.65,4.17m-42.57,7.92c3.15-3.45,7.79-1.53,14.65,5.4l-14.65-5.4m64.65,46.24,15.65,13.31c-.3.39-.62.77-.93,1.16l-15.64-13.39.92-1.08M267,170.94l-24-24.7,1.77-1.78,24.5,24.24L267,170.94M266.38,213c-5.19-2.75-10.39-5.47-15.56-8.26-7.4-4-14.43-3.66-22.09,1.3.67-1.4,1-3.44,2.11-4.06,2.28-1.27,5-2.46,7.51-2.46a38.34,38.34,0,0,1,26.32,9.78,22.34,22.34,0,0,1,2.34,2.92l-.63.78m27.4,8.8c-8.9-6.58-17.82-13.13-26.71-19.74a18.85,18.85,0,0,1-7.58-12.7c.86,1,1.65,2,2.58,3,2.61,2.65,5,5.53,8,7.79,5.66,4.37,11.81,8.11,17.33,12.63,2.82,2.31,4.72,5.74,7,8.67l-.61.39M278.1,178.78c.35-.28.7-.58,1-.87,14,15.17,28,30.33,38.65,48.27q-19.85-23.7-39.69-47.4M248.92,262l-2.1-1.33,2.24-4.21a14.88,14.88,0,0,1,2.29,1.58,32.34,32.34,0,0,1-2.43,4m14.36-5.56-6.4,1.57c-.14-.73-.28-1.44-.41-2.16l6.81-1.26c0,1.6,0,1.84,0,1.85m24.94,8.3c14.53,3.62,25.31,12.33,33.24,24.76-9.79-10.1-20.65-18.58-33.24-24.76m2.71,45.18c-.45-1.91-1.37-3.78-.89-4.27.92-.95,2.65-1.12,4-1.62.17.4.34.79.52,1.18-1,1.29-2,2.59-3.67,4.71m364.93-41.22-16.37,2.49c3.36-4.81,9.06-5.88,16.37-2.49m13.9-57.07c5.47-.77,11.67,1.47,13.91,5.33-7.28-4.11-14.66-3.07-21.33,0-5.64,2.59-10.45,7-15.61,10.6-1.52,1.07-3,2.21-4.59,3.15,6.81-9.84,15.21-17.31,27.62-19.06m-42.1-55c.32.28.65.56,1,.82q-3.6,4.31-7.19,8.59l-1-.82q3.59-4.3,7.19-8.59m.4,30.79c.39.45.78.9,1.18,1.34L613.1,202.87l-1.23-1.41,16.19-14.06M364.76,334.15l19,8.72c-7.3.55-13.51-3-19-8.72m45.31,36.37c-3.16-3-2.48-5.06,3.22-7.36-1.31,3-2.26,5.15-3.22,7.36m70.76-45.82c-5.51.31-11.06.4-16.54,1a22.06,22.06,0,0,0-15.46,8.7c-7.74,10-18.67,13.86-30.52,15.59-4.72.69-9.63.11-15.44.11,3.91-.46,6.92-.75,9.91-1.2,11.43-1.74,22.39-5.25,30.6-13.56s18.2-10.4,29.05-10.85c2.83-.11,5.66,0,8.5,0,0,.08-.07.15-.1.24m18.51-15.38-2.15-.7a71.91,71.91,0,0,1-8.29-3.05c-3.72-1.72-7.49-1.44-12.21.89-11.51,5.69-22.65,5.67-33.12,0-5.88-3.21-11.24-1.32-16.91.68-.78.28-1.59.57-2.4.84a85.65,85.65,0,0,1-12.78,3.37,28.4,28.4,0,0,1-4.9.43c-7.66,0-14.68-3.24-20.94-9.68a56.14,56.14,0,0,1-11.24-16.27,47.09,47.09,0,0,1-4-19.5c.07-11.92,3.5-23.89,10.47-36.61C389.48,214,399.33,197,411,177.81c6.19-10.18,14.62-16.09,25.06-17.57,7.21-1,13.46-.17,19.1,2.61a9.94,9.94,0,0,0,9.41.2,32.89,32.89,0,0,1,42.31,11.84c7.79,11.89,15.07,24.37,22.1,36.45,1.58,2.71,3.21,5.52,4.83,8.27,7.47,12.75,11.84,23,14.15,33.4,4.23,18.91-.32,35.44-13.53,49.14a29.76,29.76,0,0,1-16.51,9.09c-5.63,1-11.71.34-18.56-1.92M512.71,345c16.2,1.51,30.18-6.33,45.13-10.41-13.91,8.17-28.17,15.14-45.13,10.41m14.12-6.77c-6.31.68-12.8-.09-19.2-.2,0-.49,0-1,.05-1.45,2.12.27,4.23.57,6.35.8,13.89,1.53,25.83-4.32,37.85-10,6-2.8,12-5.33,18-8,.2.45.4.89.6,1.35-15,4.8-27.54,15.69-43.69,17.45M587.05,308c11-14.15,24.37-25.19,41-32.06-15.33,8.51-29.37,18.7-41,32.06m21.66-27.3,13.81-6.81.42.87-13.79,6.94c-.15-.33-.29-.67-.44-1m16.9-14.47a28.44,28.44,0,0,1,5.74-1.11,22.88,22.88,0,0,1-3.08,2.17c-7.5,3.74-15.28,7-22.49,11.21-5.86,3.45-11,8.06-16.49,12.21-1.58,1.2-3,2.61-4.63,3.75,5.94-8.61,12.76-16.24,22.69-20.44,6.1-2.57,12.12-5.32,18.26-7.79m-4.49-34.94c-.41-.28-.8-.57-1.21-.86l12.61-15.79c.48.39,1,.76,1.43,1.15-2.74,6.39-8.75,10.17-12.83,15.5m-2.28-22.75c-5.28,6.49-10.08,13.35-15.29,19.88a122.77,122.77,0,0,1-10.28,11,375.39,375.39,0,0,1,40.19-49.74l1,.89c-5.23,6-10.61,11.82-15.61,18m24.33-25.66c4.54-8.47,31.53-34.1,38.91-37.45l-38.91,37.45M744.9,99.46a22.11,22.11,0,0,1,.29,2.66h-5.14c0-.76-.09-1.53-.13-2.3a49,49,0,0,1,5-.36m7.59-13.58c-.5.15-1.37-1-2.08-1.54a16.31,16.31,0,0,1,3-2.77c.4-.23,1.52.82,3.21,1.82-1.91,1.22-2.94,2.16-4.14,2.49"></path><path class="cls-1" d="M166.61,83.64c-2.74-1.25-5.16-1.94-7.08-3.33-2.23-1.62-4.81-3.53-5.75-5.9-.83-2.09-.48-5.84.95-7.28s5-1.5,7.25-.83,3.7,3,5.45,4.63c5.27,5,10.48,10,15.76,15q18.88,17.73,37.81,35.44a4.29,4.29,0,0,1,1.15,3.25c-2.33-1.21-4.64-2.43-7-3.61-10.15-5.08-20.23-10.29-30.48-15.14-3.26-1.54-7-2.06-10.44-3.19a54.47,54.47,0,0,1-9.08-3.35c-6.56-3.52-6.91-9.27-1.09-13.84.64-.49,1.3-.94,2.53-1.84m-5.12-10c.38-.72.77-1.44,1.16-2.16l-4.58-2.84c-.33.91-1.13,2.45-.9,2.62a31.1,31.1,0,0,0,4.32,2.38m10.69,16.91c0-.32.09-.65.14-1l-4.64-3.06c-.14,1.72-.24,2.88-.33,4Z"></path><path class="cls-1" d="M727.27,168.81A36.29,36.29,0,0,1,739.82,151c5.69-4.33,14.4-4.15,20.13.13,3,2.27,3.65,5.35,2.53,8.77-2,6.16-6.8,9.16-12.76,10.62-5.73,1.42-15.87.69-22.45-1.66M755,156.16l.87-1.07c-1.67-1.35-3.55-4-5-3.76-2.93.49-5.6,2.5-8.38,3.89l.66.78,11.8.16"></path><path class="cls-1" d="M699.63,244c-2.68-4.06-6.65-5.71-11.54-5.91-7,.29-12.5,3.46-15.84,9.85-.51,1-.09,3.42.71,3.92A93.77,93.77,0,0,0,686,259c4.62,2,10.14.07,13.11-3.73a9.4,9.4,0,0,0,.5-11.31m-19.33,2.8c-.22-.52-.44-1-.65-1.55,2.08-3.14,5-4.15,8.63-3.25.18.42.36.85.53,1.27l-8.51,3.53"></path><path class="cls-1" d="M184,164.7c-5.5-.31-12.4-1.68-17.26-7.93-3.69-4.73-4.12-10.65-1.08-14.45s9-4.6,14.34-1.91c7.44,3.75,10.93,10.37,12.33,18.11,1,5.44-.25,6.34-8.33,6.18m-7-19.11c-2.46-3.1-4.55-4.37-6.5-1.89-1,1.23-.47,3.61-.64,5.47l7.14-3.58"></path><path class="cls-1" d="M684.69,71.37c6.11-.06,10.3,5,8.4,10.79-2.2,6.68-6.71,11.31-13.84,12.81a7.38,7.38,0,0,1-9-6,14.79,14.79,0,0,1,14.39-17.55m-8.64,9.45,11.1-4c-4.06-3.14-8.7-1.58-11.1,4"></path><path class="cls-1" d="M225.76,256.3a15.58,15.58,0,0,1,12.29,6.41c2.09,2.72,2.32,5.51-.82,7.71a81.35,81.35,0,0,1-8.8,5.73c-6,3.14-11.54,1-14.74-5.29-2.27-4.47.3-10.3,5.9-12.86a38.49,38.49,0,0,1,6.17-1.7m.29,5c-3.39-2.13-5.79-.59-7.81,1.62-.55.61-.22,2-.3,3.08,1,0,2.2.34,2.86-.13a63.37,63.37,0,0,0,5.25-4.57"></path><path class="cls-1" d="M237,72.83c5.07.12,8.51,2.66,10.86,7.08,2.2,4.15,2.63,8.19-.15,12.16a7.79,7.79,0,0,1-2.93,2.64c-3.65,1.63-10.92-1-14.11-4.9-3.65-4.43-4.06-8.61-1.49-13,1.78-3.07,4.48-4.06,7.82-4m.78,5.48c-2-1.23-3.39-2.64-4-2.35a7.56,7.56,0,0,0-2.93,3.3c-.16.3,1.64,2.27,2,2.12,1.47-.54,2.72-1.65,4.85-3.07"></path><path class="cls-1" d="M622.51,88.75a10.33,10.33,0,0,1-10.13,10.46c-4.77.1-12-5.74-12.11-9.72s7.82-10.41,13-10.32c4.54.07,9.22,4.91,9.27,9.58"></path><path class="cls-1" d="M306.84,325.71c5.11.05,8.87,3.54,8.73,8.1-.17,5.61-5.8,10.75-11.73,10.72-5.13,0-8.76-3.85-8.7-9.18.05-4.92,5.86-9.71,11.7-9.64m-7.56,9.57,5.86-5.13c-4.21-.9-6.6,1.41-5.86,5.13"></path><path class="cls-1" d="M187.73,204.78c5,.08,8.61,3.56,8.63,8.3a7.79,7.79,0,0,1-8.08,7.79c-4.57-.14-8.46-3.88-8.48-8.16a7.84,7.84,0,0,1,7.93-7.93"></path><path class="cls-1" d="M734.27,224.35c-.06,4.35-4.34,8.66-8.59,8.66-4.48,0-8-3.26-8.12-7.37-.06-4.37,4.46-8.66,9.08-8.61a7.55,7.55,0,0,1,7.63,7.32"></path><path class="cls-1" d="M208.28,181.42a8.46,8.46,0,0,1-8.31-8.26c.06-2.9,4-6.24,7.37-6.25,4,0,8.47,4.93,8.23,9-.19,3.29-3.22,5.57-7.29,5.48"></path><path class="cls-1" d="M649,90.62c3.71-.09,4.87,1.2,4.39,4.89-.74,5.65-3.77,9.41-8.25,9.36-1.86,0-4.47-1.06-5.36-2.49s-.66-4.28.22-5.88c1.86-3.36,4.75-5.84,9-5.88"></path><path class="cls-1" d="M711.69,94a9.78,9.78,0,0,1,9.36-9.41c2.81,0,4.59,1.3,4.78,4.32.28,4.51-4.16,10.17-8.65,11-3.08.54-5.61-2.16-5.49-5.87"></path><path class="cls-1" d="M191.67,136.21c-2.44-1.62-5.32-2.84-7.2-5-3.3-3.7-1.91-7.49,2.77-9,4-1.31,11.09,3.22,11.46,7.32.27,3-2.84,5.76-7,6.65"></path><path class="cls-1" d="M703.57,192.87a5.54,5.54,0,0,1-6-5.63c-.19-4,4-8.29,8.23-8.35a6.24,6.24,0,0,1,6.29,6.05c.16,4.12-3.83,7.83-8.52,7.93"></path><path class="cls-1" d="M724.91,134.81c3.07.05,5.81,2.37,5.88,5,.11,3.91-5,8.43-9.53,8.38-3.31,0-6.3-2.71-6.28-5.64,0-4,5-7.81,9.93-7.74"></path><path class="cls-1" d="M202.93,81.76c-.15,2.94-1.82,4.4-4.66,4.43-4,0-8.3-4.54-8.12-8.58.15-3.37,2.13-4.75,5.35-4.56,3.9.24,7.62,4.63,7.43,8.71"></path><path class="cls-2" d="M544.07,63.72c-1.29-13.1-6-24.58-15.31-34C518.09,18.86,503.94,17.05,491.08,25A40.44,40.44,0,0,0,475.6,42.32c-7.6,16-10.19,32.92-9.23,50.52a66.94,66.94,0,0,0,6.79,25.7c9.43,19.58,30.23,24.39,45.15,13a36.27,36.27,0,0,0,8.64-10c5.59-9.23,8.27-19.52,9.67-30.2a64.53,64.53,0,0,1-1.87,26.57l1.28.37c1.33-3.48,2.87-6.89,4-10.44a112.12,112.12,0,0,0,4.09-44.13M496.46,66.2a28.75,28.75,0,0,1,2.35-23.3c3.05-5.35,10.95-6.75,17.29-2.94-7.8-1-12.3,2.41-15.66,8.22-3.27,5.65-4.07,11.65-4,18M487.13,65c-.69-2.82-1.14-5.71-2-8.55-3.21,8.67-1.5,17.56-1.27,26.63a4.14,4.14,0,0,1-1.08-.41,5.47,5.47,0,0,1-.73-.92l-1.3.32q1.55,9.12,3.09,18.26a24.17,24.17,0,0,1-1.67-2.24c-11.17-18.84-8.77-44.61,5.68-61A23.85,23.85,0,0,1,513,30.37,26.23,26.23,0,0,1,515.9,32c-2.42.43-3.81.69-5.21.92-7.05,1.18-12.32,4.28-15.68,11.2a47.26,47.26,0,0,0-4.38,29.18l-1.05.18c-.83-2.8-1.76-5.57-2.45-8.41m34.52,57.2c-6.57,6.26-13.72,11.45-23.41,11.27-3.3-.07-6.32-.85-8.59-4.72,18,3.3,28.91-6.74,39.46-19.31a24.17,24.17,0,0,1-7.46,12.76"></path><path class="cls-2" d="M455.49,74.45c-2.41-14-6.21-27.55-15.63-38.62-13.16-15.45-32.33-16.69-47.36-3.42-6.65,5.87-10,13.68-12.46,21.92-6.06,20.45-3.5,40.49,3.67,60.07a40.27,40.27,0,0,0,17.39,21.31c8.62,5.06,17.86,7.15,28,3.72-9.34-2.94-18.31-6.44-25.29-13.51,2.41,1.17,4.58,2.88,7.06,3.8,5.78,2.14,11.2,5,17.79.64,10-6.69,16.18-15.23,17.26-27.27.24-2.69.28-5.41.47-9.23,3.76,14.06,1.66,25.6-8.49,35.49,1.9-.09,3.57-.31,4.51-1.25,2.17-2.18,4.51-4.44,5.85-7.14a53.36,53.36,0,0,0,3.51-40.53c-1.84-6.06-3.82-12.08-5.74-18.12l.67-.32,8.11,14.95a6.78,6.78,0,0,0,.69-1.28,3.78,3.78,0,0,0,0-1.21M418.9,40.5c-14.54,7-14.88,19.16-14.15,31.8l-1.19.15c-1.06-5.51-2.12-11-3.35-17.46-2.8,6-1.86,11.35-1.24,16.53s2,10.48,2.75,16q-3.23-5.9-6.47-11.77c-.67,15.46,2.75,29.2,15,39.47C399,108.66,393.42,97.6,387.43,86.62l.51,6.26-.72.11c-.36-2-.87-3.9-1.05-5.88-1-11.21-1.71-22.4,2-33.35,2.81-8.25,7.21-15.15,15.33-19a19.89,19.89,0,0,1,16-.77c-6.48,2.63-15,2.22-16.6,11.54,4.54-3.19,9.11-5.94,16-5"></path><path class="cls-2" d="M609.36,128.67c-5.77-14.83-18.45-24-32.72-23.19-11.46.62-19.91,6.86-26.69,15.39-12.71,16-17.17,34.72-16.71,54.66a45.25,45.25,0,0,0,11.5,29c2.09,2.4,5.6,5,8.46,5,10.83,0,20.85-3.15,29.11-10.68,9-8.22,14.08-18.53,16.12-30.4,1.87,24.4-10.73,38.75-33.55,46.68,8.73,1.49,15.13-.76,20.79-5.54,15.41-13,23.65-29.82,26.2-49.62,1.37-10.61,1.47-21.09-2.51-31.32M565,143.29c1.74-6,3.48-11.94,5.58-19.1-9.46,9.53-11.62,20.5-12.77,32.06-.58-5-1.15-10.07-1.76-15.48-4,4.9-7.25,22.7-7.44,35.75-.88-4.56-1.9-9.12-2.63-13.71-1.65-10.47-.44-20.43,4.68-30A35.75,35.75,0,0,1,569,116.17c2.88-1.19,6.3-1.11,9.72-.78l-8.16,7.07c5.19-.71,9.88-3.23,15-.58-12.13,2.27-16.43,11.47-20.53,21.41"></path><path class="cls-3" d="M345,116.76c-13-.62-23.25,7.81-25.37,21-1.83,11.38-.18,22.38,1.46,30.7a73.87,73.87,0,0,0,3.9,12.1c.68,1.76,1.38,3.57,2,5.37l.06.16,1.65-.71,0-.13c-.45-1.36-1-2.72-1.52-4-1.61-4-3.28-8.22-2.36-12.65L337,184.67l1.2-.8-.09-.13c-4.62-6.54-7.1-12.6-7.79-19a106.92,106.92,0,0,0-2.82-14c-.49-2-1-4-1.43-6l.78-.2,6.47,11.55-.08-.74c-.2-1.92-.43-3.88-.66-5.77-.49-4.25-1-8.64-1.25-13-.52-9.53,4-15.91,13.49-19,.16,0,.23-.23.29-.41s.05-.13.07-.19l.11-.21Zm-.28.68c-9.29,3-14.13,9.29-13.59,19.13.34,6.28,1.25,12.53,1.91,18.76-1.95-3.49-4.06-7.24-6.17-11l-1,.27c1.49,6.7,3.55,13.34,4.29,20.12.78,7.26,3.73,13.33,7.81,19.12l-.95.63-12.28-16.27c-1.41,6,1.94,11.44,3.81,17.1l-1.37.58c-2-5.8-4.72-11.47-5.9-17.45-2-10.07-3.12-20.31-1.46-30.65,2.09-13,12.23-21.47,25.22-20.86-.1.19-.15.49-.28.53m5.47,6.07c-5.36-1.79-12.11.08-15,4.16-2.68,3.71-2.06,12.15,1.19,16.43l.28.37V144c-.05-7.61.75-12.09,2.69-15s5.19-4.45,10.88-5.24l.64-.09ZM336.47,144c-3.18-4.19-3.8-12.63-1.19-16.25,2.89-4,9.61-5.86,14.88-4.11-10.9,1.52-13.8,5.82-13.69,20.36m13.74-20.5c-5.36-1.79-12.11.08-15,4.16-2.68,3.71-2.06,12.15,1.19,16.43l.28.37V144c-.05-7.61.75-12.09,2.69-15s5.19-4.45,10.88-5.24l.64-.09ZM336.47,144c-3.18-4.19-3.8-12.63-1.19-16.25,2.89-4,9.61-5.86,14.88-4.11-10.9,1.52-13.8,5.82-13.69,20.36m-6.18,20.69a106.92,106.92,0,0,0-2.82-14c-.49-2-1-4-1.43-6l.78-.2,6.47,11.55-.08-.74c-.2-1.92-.43-3.88-.66-5.77-.49-4.25-1-8.64-1.25-13-.52-9.53,4-15.91,13.49-19,.16,0,.23-.23.29-.41s.05-.13.07-.19l.11-.21H345c-13-.62-23.25,7.81-25.37,21-1.83,11.38-.18,22.38,1.46,30.7a73.87,73.87,0,0,0,3.9,12.1c.68,1.76,1.38,3.57,2,5.37l.06.16,1.65-.71,0-.13c-.45-1.36-1-2.72-1.52-4-1.61-4-3.28-8.22-2.36-12.65L337,184.67l1.2-.8-.09-.13c-4.62-6.54-7.1-12.6-7.79-19M337,184.46l-12.28-16.27c-1.41,6,1.94,11.44,3.81,17.1l-1.37.58c-2-5.8-4.72-11.47-5.9-17.45-2-10.07-3.12-20.31-1.46-30.65,2.09-13,12.23-21.47,25.22-20.86-.1.19-.15.49-.28.53-9.29,3-14.13,9.29-13.59,19.13.34,6.28,1.25,12.53,1.91,18.76-1.95-3.49-4.06-7.24-6.17-11l-1,.27c1.49,6.7,3.55,13.34,4.29,20.12.78,7.26,3.73,13.33,7.81,19.12l-.95.63m48.49-24.27c-1.57-16.94-8.32-32-20.81-43.74-11.65-11-26.21-11.54-38-2.36a38.69,38.69,0,0,0-15,26.07,76.72,76.72,0,0,0,13.06,55.17,64.75,64.75,0,0,0,13.3,14c5.48,4.32,12.26,4.75,19.72,2.84-3.46-2-6.36-3.67-9.21-5.39s-5.67-3.52-8.5-5.28c14.89,7,25.07,6.3,29,4l-15.68-1.26c0-.34.09-.68.13-1,7.49-1.31,14.43-3.67,19.06-10.28a29.61,29.61,0,0,0,5.36-21.31c4.43,9.27,3.1,18.31-.85,27.35a20.17,20.17,0,0,0,7.53-13.38c.86-8.42,1.72-17,.94-25.38m-1.09,25.37a19.76,19.76,0,0,1-7,12.84c4.3-10.14,4.49-18.7.59-26.87l-.4-.85.11.94a29.61,29.61,0,0,1-5.33,21.2c-4.85,6.92-12.3,9.05-19,10.22l-.11,0-.18,1.3,15.33,1.22c-3.75,1.83-13.45,2.8-28.4-4.26l-.14.27,2.58,1.61c1.93,1.22,3.93,2.47,5.92,3.67s4,2.34,6.09,3.57c.89.53,1.82,1.07,2.8,1.63-8,2-14.26,1-19.23-2.9a64.63,64.63,0,0,1-13.26-13.92,76.5,76.5,0,0,1-13-55.06,38.43,38.43,0,0,1,15-26,28.47,28.47,0,0,1,17.53-6.38c7.08,0,14.14,2.93,20.3,8.73,12.15,11.46,19.14,26.14,20.76,43.64.78,8.45-.09,17-.94,25.36m-49.24-57.89c-2.68,3.71-2.06,12.15,1.19,16.43l.28.37V144c-.05-7.61.75-12.09,2.69-15s5.19-4.45,10.88-5.24l.64-.09-.62-.2c-5.36-1.79-12.11.08-15,4.16M336.47,144c-3.18-4.19-3.8-12.63-1.19-16.25,2.89-4,9.61-5.86,14.88-4.11-10.9,1.52-13.8,5.82-13.69,20.36m-6.18,20.69a106.92,106.92,0,0,0-2.82-14c-.49-2-1-4-1.43-6l.78-.2,6.47,11.55-.08-.74c-.2-1.92-.43-3.88-.66-5.77-.49-4.25-1-8.64-1.25-13-.52-9.53,4-15.91,13.49-19,.16,0,.23-.23.29-.41s.05-.13.07-.19l.11-.21H345c-13-.62-23.25,7.81-25.37,21-1.83,11.38-.18,22.38,1.46,30.7a73.87,73.87,0,0,0,3.9,12.1c.68,1.76,1.38,3.57,2,5.37l.06.16,1.65-.71,0-.13c-.45-1.36-1-2.72-1.52-4-1.61-4-3.28-8.22-2.36-12.65L337,184.67l1.2-.8-.09-.13c-4.62-6.54-7.1-12.6-7.79-19M337,184.46l-12.28-16.27c-1.41,6,1.94,11.44,3.81,17.1l-1.37.58c-2-5.8-4.72-11.47-5.9-17.45-2-10.07-3.12-20.31-1.46-30.65,2.09-13,12.23-21.47,25.22-20.86-.1.19-.15.49-.28.53-9.29,3-14.13,9.29-13.59,19.13.34,6.28,1.25,12.53,1.91,18.76-1.95-3.49-4.06-7.24-6.17-11l-1,.27c1.49,6.7,3.55,13.34,4.29,20.12.78,7.26,3.73,13.33,7.81,19.12l-.95.63"></path><path class="cls-2" d="M345,116.76c-13.06-.62-23.26,7.81-25.38,21-1.83,11.38-.18,22.38,1.46,30.7a73.87,73.87,0,0,0,3.9,12.1c.68,1.76,1.38,3.57,2,5.37l.06.16,1.65-.71,0-.13c-.45-1.36-1-2.72-1.52-4-1.61-4-3.28-8.22-2.36-12.65L337,184.67l1.2-.8-.09-.13c-4.62-6.54-7.1-12.6-7.79-19a106.92,106.92,0,0,0-2.82-14c-.49-2-1-4-1.43-6l.78-.2,6.47,11.55-.08-.74c-.2-1.92-.43-3.88-.66-5.77-.49-4.25-1-8.64-1.25-13-.52-9.53,4-15.91,13.49-19,.16,0,.23-.23.29-.41s.05-.13.07-.19l.11-.21Zm-.24.3a1.2,1.2,0,0,1-.09.23c-9.62,3.11-14.23,9.6-13.7,19.29.24,4.35.75,8.74,1.25,13,.2,1.65.4,3.35.58,5L327,144.25l-.06-.1-1.29.33,0,.14c.45,2,1,4.13,1.46,6.14a106.67,106.67,0,0,1,2.82,14c.69,6.46,3.16,12.52,7.75,19.06l-.7.46-12.39-16.41-.08.32c-1.09,4.64.64,9,2.31,13.16.5,1.26,1,2.58,1.47,3.88l-1.1.47c-.62-1.76-1.3-3.52-2-5.23a73.25,73.25,0,0,1-3.88-12.05c-1.63-8.29-3.28-19.26-1.46-30.6,2-12.56,11.48-20.76,23.74-20.76l1.11,0h0m5.42,6.45c-5.36-1.79-12.11.08-15,4.16-2.68,3.71-2.06,12.15,1.19,16.43l.28.37V144c-.05-7.61.75-12.09,2.69-15s5.19-4.44,10.87-5.23l.65-.09Zm-13.89,20c-2.89-4.23-3.4-12.24-.91-15.68,2.12-2.95,6.31-4.72,10.47-4.72a13.56,13.56,0,0,1,3.59.47c-10.3,1.59-13.19,6-13.15,19.93m13.89-20c-5.36-1.79-12.11.08-15,4.16-2.68,3.71-2.06,12.15,1.19,16.43l.28.37V144c-.05-7.61.75-12.09,2.69-15s5.19-4.44,10.87-5.23l.65-.09Zm-13.89,20c-2.89-4.23-3.4-12.24-.91-15.68,2.12-2.95,6.31-4.72,10.47-4.72a13.56,13.56,0,0,1,3.59.47c-10.3,1.59-13.19,6-13.15,19.93m-6,21.17a106.92,106.92,0,0,0-2.82-14c-.49-2-1-4-1.43-6l.78-.2,6.47,11.55-.08-.74c-.2-1.92-.43-3.88-.66-5.77-.49-4.25-1-8.64-1.25-13-.52-9.53,4-15.91,13.49-19,.16,0,.23-.23.29-.41s.05-.13.07-.19l.11-.21H345c-13.06-.62-23.26,7.81-25.38,21-1.83,11.38-.18,22.38,1.46,30.7a73.87,73.87,0,0,0,3.9,12.1c.68,1.76,1.38,3.57,2,5.37l.06.16,1.65-.71,0-.13c-.45-1.36-1-2.72-1.52-4-1.61-4-3.28-8.22-2.36-12.65L337,184.67l1.2-.8-.09-.13c-4.62-6.54-7.1-12.6-7.79-19M337,184.25l-12.39-16.41-.08.32c-1.09,4.64.64,9,2.31,13.16.5,1.26,1,2.58,1.47,3.88l-1.1.47c-.62-1.76-1.3-3.52-2-5.23a73.25,73.25,0,0,1-3.88-12.05c-1.63-8.29-3.28-19.26-1.46-30.6,2-12.56,11.48-20.76,23.74-20.76l1.11,0h0a1.2,1.2,0,0,1-.09.23c-9.62,3.11-14.23,9.6-13.7,19.29.24,4.35.75,8.74,1.25,13,.2,1.65.4,3.35.58,5L327,144.25l-.06-.1-1.29.33,0,.14c.45,2,1,4.13,1.46,6.14a106.67,106.67,0,0,1,2.82,14c.69,6.46,3.16,12.52,7.75,19.06Zm48.6-24.08C384,142.6,377,127.85,364.78,116.34c-11.5-10.85-26.15-11.75-38.22-2.37a38.71,38.71,0,0,0-15.07,26.17,76.78,76.78,0,0,0,13.09,55.28,64.77,64.77,0,0,0,13.32,14,18.61,18.61,0,0,0,11.94,4,31.92,31.92,0,0,0,7.92-1.09l.36-.09-.32-.19-3.13-1.82c-2.13-1.23-4.13-2.4-6.09-3.57s-4-2.45-5.91-3.66l-.62-.4c14.5,6.34,23.76,5,27,3l.42-.24-16-1.29.1-.74c6.69-1.19,14.17-3.36,19.05-10.33a29.92,29.92,0,0,0,5.49-20.48c3.52,8,3.11,16.4-1.25,26.37l-.27.6.5-.42a20.3,20.3,0,0,0,7.6-13.48c.84-8.33,1.72-17,.93-25.42m-8.22,38.23c4.3-10.14,4.49-18.7.59-26.87l-.4-.85.11.94a29.61,29.61,0,0,1-5.33,21.2c-4.85,6.92-12.3,9.05-19,10.22l-.11,0-.18,1.3,15.33,1.22c-3.75,1.83-13.45,2.8-28.4-4.26l-.14.27,2.58,1.61c1.93,1.22,3.93,2.47,5.92,3.67s4,2.34,6.09,3.57c.9.53,1.82,1.07,2.8,1.63-8,2-14.26,1-19.23-2.9a64.63,64.63,0,0,1-13.26-13.92,76.51,76.51,0,0,1-13-55.07,38.43,38.43,0,0,1,15-26,28.47,28.47,0,0,1,17.53-6.38c7.08,0,14.14,2.93,20.3,8.73,12.15,11.46,19.14,26.14,20.76,43.64.78,8.44-.09,17-.94,25.35a19.76,19.76,0,0,1-7,12.85m-42.26-70.73c-2.68,3.71-2.06,12.15,1.19,16.43l.28.37V144c-.05-7.61.75-12.09,2.69-15s5.19-4.44,10.87-5.23l.65-.09-.62-.2c-5.36-1.79-12.11.08-15,4.16m1.16,15.86c-2.89-4.23-3.4-12.24-.91-15.68,2.12-2.95,6.31-4.72,10.47-4.72a13.56,13.56,0,0,1,3.59.47c-10.3,1.59-13.19,6-13.15,19.93m-6,21.17a106.92,106.92,0,0,0-2.82-14c-.49-2-1-4-1.43-6l.78-.2,6.47,11.55-.08-.74c-.2-1.92-.43-3.88-.66-5.77-.49-4.25-1-8.64-1.25-13-.52-9.53,4-15.91,13.49-19,.16,0,.23-.23.29-.41s.05-.13.07-.19l.11-.21H345c-13.06-.62-23.26,7.81-25.38,21-1.83,11.38-.18,22.38,1.46,30.7a73.87,73.87,0,0,0,3.9,12.1c.68,1.76,1.38,3.57,2,5.37l.06.16,1.65-.71,0-.13c-.45-1.36-1-2.72-1.52-4-1.61-4-3.28-8.22-2.36-12.65L337,184.67l1.2-.8-.09-.13c-4.62-6.54-7.1-12.6-7.79-19M337,184.25l-12.39-16.41-.08.32c-1.09,4.64.64,9,2.31,13.16.5,1.26,1,2.58,1.47,3.88l-1.1.47c-.62-1.76-1.3-3.52-2-5.23a73.25,73.25,0,0,1-3.88-12.05c-1.63-8.29-3.28-19.26-1.46-30.6,2-12.56,11.48-20.76,23.74-20.76l1.11,0h0a1.2,1.2,0,0,1-.09.23c-9.62,3.11-14.23,9.6-13.7,19.29.24,4.35.75,8.74,1.25,13,.2,1.65.4,3.35.58,5L327,144.25l-.06-.1-1.29.33,0,.14c.45,2,1,4.13,1.46,6.14a106.67,106.67,0,0,1,2.82,14c.69,6.46,3.16,12.52,7.75,19.06Zm8-67.49c-13.06-.62-23.26,7.81-25.38,21-1.83,11.38-.18,22.38,1.46,30.7a73.87,73.87,0,0,0,3.9,12.1c.68,1.76,1.38,3.57,2,5.37l.06.16,1.65-.71,0-.13c-.45-1.36-1-2.72-1.52-4-1.61-4-3.28-8.22-2.36-12.65L337,184.67l1.2-.8-.09-.13c-4.62-6.54-7.1-12.6-7.79-19a106.92,106.92,0,0,0-2.82-14c-.49-2-1-4-1.43-6l.78-.2,6.47,11.55-.08-.74c-.2-1.92-.43-3.88-.66-5.77-.49-4.25-1-8.64-1.25-13-.52-9.53,4-15.91,13.49-19,.16,0,.23-.23.29-.41s.05-.13.07-.19l.11-.21Zm-.24.3a1.2,1.2,0,0,1-.09.23c-9.62,3.11-14.23,9.6-13.7,19.29.24,4.35.75,8.74,1.25,13,.2,1.65.4,3.35.58,5L327,144.25l-.06-.1-1.29.33,0,.14c.45,2,1,4.13,1.46,6.14a106.67,106.67,0,0,1,2.82,14c.69,6.46,3.16,12.52,7.75,19.06l-.7.46-12.39-16.41-.08.32c-1.09,4.64.64,9,2.31,13.16.5,1.26,1,2.58,1.47,3.88l-1.1.47c-.62-1.76-1.3-3.52-2-5.23a73.25,73.25,0,0,1-3.88-12.05c-1.63-8.29-3.28-19.26-1.46-30.6,2-12.56,11.48-20.76,23.74-20.76l1.11,0h0m5.42,6.45c-5.36-1.79-12.11.08-15,4.16-2.68,3.71-2.06,12.15,1.19,16.43l.28.37V144c-.05-7.61.75-12.09,2.69-15s5.19-4.44,10.87-5.23l.65-.09Zm-13.89,20c-2.89-4.23-3.4-12.24-.91-15.68,2.12-2.95,6.31-4.72,10.47-4.72a13.56,13.56,0,0,1,3.59.47c-10.3,1.59-13.19,6-13.15,19.93M345,116.76c-13.06-.62-23.26,7.81-25.38,21-1.83,11.38-.18,22.38,1.46,30.7a73.87,73.87,0,0,0,3.9,12.1c.68,1.76,1.38,3.57,2,5.37l.06.16,1.65-.71,0-.13c-.45-1.36-1-2.72-1.52-4-1.61-4-3.28-8.22-2.36-12.65L337,184.67l1.2-.8-.09-.13c-4.62-6.54-7.1-12.6-7.79-19a106.92,106.92,0,0,0-2.82-14c-.49-2-1-4-1.43-6l.78-.2,6.47,11.55-.08-.74c-.2-1.92-.43-3.88-.66-5.77-.49-4.25-1-8.64-1.25-13-.52-9.53,4-15.91,13.49-19,.16,0,.23-.23.29-.41s.05-.13.07-.19l.11-.21Zm-.24.3a1.2,1.2,0,0,1-.09.23c-9.62,3.11-14.23,9.6-13.7,19.29.24,4.35.75,8.74,1.25,13,.2,1.65.4,3.35.58,5L327,144.25l-.06-.1-1.29.33,0,.14c.45,2,1,4.13,1.46,6.14a106.67,106.67,0,0,1,2.82,14c.69,6.46,3.16,12.52,7.75,19.06l-.7.46-12.39-16.41-.08.32c-1.09,4.64.64,9,2.31,13.16.5,1.26,1,2.58,1.47,3.88l-1.1.47c-.62-1.76-1.3-3.52-2-5.23a73.25,73.25,0,0,1-3.88-12.05c-1.63-8.29-3.28-19.26-1.46-30.6,2-12.56,11.48-20.76,23.74-20.76l1.11,0h0m5.42,6.45c-5.36-1.79-12.11.08-15,4.16-2.68,3.71-2.06,12.15,1.19,16.43l.28.37V144c-.05-7.61.75-12.09,2.69-15s5.19-4.44,10.87-5.23l.65-.09Zm-13.89,20c-2.89-4.23-3.4-12.24-.91-15.68,2.12-2.95,6.31-4.72,10.47-4.72a13.56,13.56,0,0,1,3.59.47c-10.3,1.59-13.19,6-13.15,19.93"></path><path class="cls-2" d="M388.12,162.66c-1.7-18.32-9-33.69-21.74-45.69-6.44-6.07-13.83-9.14-21.24-9.14a29.83,29.83,0,0,0-18.36,6.68,40.22,40.22,0,0,0-15.66,27.19,80.16,80.16,0,0,0,13.65,57.64,67.63,67.63,0,0,0,13.89,14.58c5.2,4.1,11.79,5.1,20.13,3l-2.94-1.71c-2.22-1.29-4.32-2.51-6.37-3.74s-4.17-2.57-6.19-3.84L340.58,206l.15-.28c15.65,7.39,25.81,6.38,29.73,4.46l-16-1.28.18-1.36.11,0c7-1.22,14.78-3.45,19.85-10.69a31.08,31.08,0,0,0,5.59-22.21l-.12-1,.42.88c4.08,8.56,3.89,17.52-.62,28.14a20.74,20.74,0,0,0,7.31-13.45c.88-8.71,1.8-17.71,1-26.54m-50.64,25.61L324.74,171.4c-.95,4.63.79,9,2.48,13.24.55,1.38,1.11,2.8,1.58,4.22l.05.14-1.73.74-.06-.16c-.65-1.88-1.39-3.78-2.1-5.62a78.28,78.28,0,0,1-4.08-12.67c-1.71-8.71-3.44-20.23-1.52-32.14,2.21-13.79,12.89-22.62,26.56-22h.24l-.11.22c0,.06-.05.13-.08.2s-.13.38-.3.43c-9.91,3.21-14.66,9.89-14.12,19.87.25,4.54.79,9.13,1.31,13.58.24,2,.48,4,.69,6l.08.77-6.77-12.09-.82.21c.46,2.1,1,4.22,1.5,6.27a110,110,0,0,1,2.95,14.66c.73,6.75,3.32,13.09,8.16,19.94l.09.13Zm13.84-63.72c-5.95.83-9.36,2.46-11.38,5.48s-2.88,7.71-2.82,15.68v.47l-.29-.38c-3.41-4.48-4-13.32-1.25-17.2,3.08-4.27,10.15-6.23,15.76-4.36l.65.21Z"></path><path class="cls-2" d="M542.52,253.67c-2.19-9.81-6.36-19.62-13.5-31.81-1.58-2.7-3.19-5.44-4.73-8.1-6.86-11.77-14-23.95-21.54-35.5-8.38-12.79-23.49-17-37.6-10.51a12.82,12.82,0,0,1-11.8-.23,26.28,26.28,0,0,0-11.83-2.65,35.06,35.06,0,0,0-5.1.38c-9.28,1.31-16.8,6.62-22.36,15.77-11.37,18.72-21,35.28-29.39,50.6-6.57,12-9.8,23.25-9.87,34.39v.3c0,12.17,4.61,22.83,14.06,32.58,6.67,6.87,14.27,9.62,22.61,8.19a81.5,81.5,0,0,0,12-3.19c.77-.26,1.56-.53,2.31-.81,5.92-2.09,12.05-4.25,19-.47,9.33,5.09,19.29,5.08,29.63,0,3.41-1.68,8.63-3.61,14.52-.9a69.28,69.28,0,0,0,7.77,2.85l2.12.68c12.85,4.25,23,2.21,31.2-6.24,12.18-12.62,16.37-27.87,12.47-45.31m-81.87-33.28-.65.44-4.5-10.42.65-.37,4.5,10.35M408.6,298C401,295.4,398,288.91,397.55,279.9c5.21,15.19,12.66,18.48,27.63,12.76-5.11,4.2-10.48,7.49-16.58,5.37m30.72-110.49c2.78,2.77,2.06,5.43,1,8.16-1.73,4.4-3.09,8.91-2.42,14l-.77.11c-.78-4.31-1.57-8.61-2.34-12.83-4.08,2.48-4.38,13-.75,28.28-3.26-4.88-5-10.55-6.8-16.41.16,9.74,1.65,19.69-3.87,28.72,1.33-6.48,2.05-12.53-.16-18.63-1,6.4-4.28,10.89-8.41,14.82-3.52,3.36-4.08,8.14-3.85,13.4-2.16-5.74-.77-13.64,3.56-21.23-3.81,1.47-8.71,8.69-10.06,15.13-1.5,7.18.73,13.07,5.52,18.23-5.9-2.91-9.26-10.19-10.06-21.31-3,1.57-3.32,9.85-3.26,17.06-.2-.18-.41-.27-.45-.41-1.47-6.22-2.2-12.44-.28-18.67,1.14-3.68,3.64-6,6.32-8a39.33,39.33,0,0,1,5.39-3.36c8.1-4.25,12.8-11.58,14.9-21.45a90.18,90.18,0,0,1,3.18-12c3.62-9.94,11.9-15.36,21.31-14.7,3.48.25,6.17,1.94,8.59,4.54-4.17-1.81-8.28-2.31-12.47.23,4.89.54,9.42,1.61,11.37,7.47l-6.74-3-.41.75c1,3.66,2.07,7.3,2.95,11s1.56,7.34,2.47,11.72c-2.53-6.11-4.69-11.54-7-16.88a7.54,7.54,0,0,0-6.41-4.71M464.73,296.4c-4.14-.26-8.35-1.77-12.52-2.72l.06-1c3.24.53,6.48,1.17,9.72,1.57,8.32,1,14.39-4,14.88-12.42a49.81,49.81,0,0,0-.48-6.37c5.47,12-2.42,21.53-11.66,21m56.77.8c-7.12,8-17.07,7.13-26.75-2.7,5.83,4.18,11.86,6.83,18.7,3.33,5.36-2.74,8-8.27,10.67-13.73.07.15.2.45.35.74,0,0,.14,0,.23,0,3.38-4.95,2.79-10.44,1.41-16.31,5.88,7.69,2,21.24-4.61,28.64"></path><path class="cls-1" d="M557,360.73c5.07.12,8.5,2.66,10.86,7.09,2.2,4.15,2.63,8.18-.16,12.16a7.77,7.77,0,0,1-2.92,2.64c-3.65,1.62-10.92-1-14.12-4.91-3.64-4.43-4.05-8.6-1.48-13,1.78-3.08,4.48-4.07,7.82-4m.77,5.48c-2-1.23-3.39-2.63-4-2.35a7.65,7.65,0,0,0-2.92,3.3c-.16.31,1.64,2.27,2,2.12,1.46-.54,2.72-1.65,4.84-3.07"></path><polygon class="cls-2" points="26.42 397.69 54.46 397.69 54.46 484.23 94.45 484.23 94.45 503.43 26.42 503.43 26.42 397.69"></polygon><path class="cls-2" d="M98.19,507.17H22.68V394H58.2v86.53h40Zm-68-7.48H90.71V488h-40V401.43H30.16Z"></path><rect class="cls-2" x="111.71" y="397.7" width="28.04" height="105.73"></rect><path class="cls-2" d="M143.49,507.17H108V394h35.52Zm-28-7.48H136V401.43H115.45Z"></path><path class="cls-2" d="M206.64,395.84q24.44,0,38.11,14.43t13.67,40.25q0,25.91-13.67,40.26t-38.11,14.36q-24.6,0-38.19-14.32t-13.58-40.3q0-25.81,13.67-40.25t38.1-14.43m0,17.85q-10.57,0-16.3,9.6t-5.72,27.23q0,17.64,5.72,27.2t16.3,9.56q10.59,0,16.3-9.56t5.72-27.2q0-17.62-5.76-27.23t-16.26-9.6"></path><path class="cls-2" d="M206.64,508.88c-17.39,0-31.15-5.21-40.9-15.49s-14.61-24.64-14.61-42.87,4.94-32.53,14.7-42.82,23.54-15.6,40.81-15.6,31,5.25,40.82,15.6,14.7,24.7,14.7,42.82-5,32.59-14.71,42.84-23.54,15.52-40.81,15.52m0-109.3c-15.35,0-26.93,4.33-35.38,13.26s-12.65,21.54-12.65,37.68,4.22,28.94,12.56,37.72,20.22,13.16,35.47,13.16S233.7,497,242,488.2s12.64-21.49,12.64-37.68S250.42,421.7,242,412.84s-20-13.26-35.39-13.26m0,91.44c-8.43,0-15-3.83-19.51-11.38-4.14-6.93-6.25-16.73-6.25-29.12s2.11-22.19,6.25-29.14c4.52-7.58,11.08-11.43,19.51-11.43s14.92,3.84,19.46,11.42c4.18,7,6.3,16.77,6.3,29.15s-2.1,22.19-6.25,29.12c-4.52,7.55-11.08,11.38-19.51,11.38m0-73.59c-5.77,0-9.92,2.47-13.08,7.78-3.45,5.78-5.2,14.29-5.2,25.31s1.75,19.53,5.19,25.28c3.16,5.28,7.32,7.74,13.09,7.74s9.93-2.46,13.09-7.74c3.45-5.76,5.19-14.26,5.19-25.28s-1.76-19.52-5.23-25.3c-3.19-5.31-7.33-7.79-13.05-7.79"></path><polygon class="cls-2" points="275.4 397.69 307.66 397.69 344.47 474.78 344.47 397.69 368.46 397.69 368.46 503.43 336.21 503.43 299.23 426.19 299.23 503.43 275.4 503.43 275.4 397.69"></polygon><path class="cls-2" d="M372.2,507.17H333.85L303,442.66v64.51H271.66V394H310l30.72,64.31V394H372.2Zm-33.63-7.48h26.15V401.43H348.21v89.86L305.3,401.43H279.14v98.26h16.35v-90Z"></path><polygon class="cls-2" points="446.99 397.69 528.36 397.69 528.36 416.59 501.78 416.59 501.78 503.43 473.57 503.43 473.57 416.59 446.99 416.59 446.99 397.69"></polygon><path class="cls-2" d="M505.52,507.17H469.83V420.34H443.25V394H532.1v26.38H505.52Zm-28.21-7.48H498V412.86h26.58V401.43H450.73v11.43h26.58Z"></path><path class="cls-2" d="M545.73,397.7h28.9c1.49,0,3,0,4.55-.08l2.5-.07q23.31,0,33.93,6.81t10.62,21.69q0,9.74-5.85,16.07t-17,8.7a16.93,16.93,0,0,1,8.73,4.47q3.23,3.27,6.58,12.35l13.42,35.79h-28.9l-9.72-30q-2.58-8.18-5.72-10.75t-9.24-2.57h-5.25v43.31H545.73Zm27.52,17.63v27.16h5.93q10.5,0,15.06-3.13t4.55-10.12q0-7.65-4.17-10.78t-15-3.13Z"></path><path class="cls-2" d="M637.48,507.17h-37L589.91,474.6c-2-6.23-3.69-8.32-4.53-9-1.4-1.15-3.72-1.73-6.88-1.73H577v43.31H542V394h32.64c1.46,0,3,0,4.43-.08l2.62-.07c16.42,0,28.18,2.42,36,7.4C625.82,406.46,630,414.81,630,426c0,7.44-2.3,13.71-6.84,18.61a30,30,0,0,1-9.67,6.83c.45.37.88.77,1.29,1.18,2.55,2.59,5,7.07,7.42,13.68Zm-31.58-7.48h20.78L615.16,469c-2.55-6.89-4.53-9.81-5.74-11a13.38,13.38,0,0,0-6.86-3.43l-17-3.69,17-3.63c6.65-1.41,11.72-4,15.07-7.58s4.85-8,4.85-13.54c0-8.63-2.91-14.7-8.9-18.54-6.43-4.12-17.17-6.21-31.91-6.21l-2.38.07c-1.56.05-3.13.07-4.67.07H549.47v98.26h20V456.38h9c4.93,0,8.84,1.15,11.61,3.42s5,6.29,6.92,12.52Zm-26.72-53.46h-9.67V411.59h10.11c8.12,0,13.77,1.27,17.25,3.87,3.76,2.82,5.66,7.46,5.66,13.78,0,7.41-3.36,11.27-6.18,13.21-3.71,2.54-9.33,3.78-17.17,3.78M577,438.75h2.19c7.72,0,11.3-1.34,12.94-2.47,1.26-.86,2.94-2.53,2.94-7,0-3.84-.9-6.46-2.68-7.79-1.18-.89-4.42-2.38-12.76-2.38H577Z"></path><path class="cls-2" d="M690.28,397.7H722.7l37.93,105.73H731.56l-7-23.59H685.2l-7.4,23.59H650.54ZM706,418.53l-14.63,43H719Z"></path><path class="cls-2" d="M766,507.17H728.78l-7.06-23.59H688l-7.4,23.59H645.14L687.69,394h37.64Zm-31.6-7.48h21l-35.25-98.26h-27.2l-36.93,98.26h19.12l7.4-23.59h44.83ZM724,465.28H686.17l20.06-59Zm-27.42-7.48H714l-8.17-27Z"></path><path class="cls-2" d="M850.12,400.89l-1.38,19.8a47,47,0,0,0-11.09-4.32A51.5,51.5,0,0,0,825.52,415q-15.32,0-23.61,9.23t-8.3,26.12q0,17.25,8.56,26.63t24.38,9.38A45,45,0,0,0,838,484.9a54.64,54.64,0,0,0,11.61-4.61l1.21,20.39A81.37,81.37,0,0,1,837.13,504a96.1,96.1,0,0,1-15,1.12q-26.67,0-42.41-14.81T764,450.38q0-24.78,15.61-39.66t41.59-14.89a83.26,83.26,0,0,1,14.41,1.27,95.09,95.09,0,0,1,14.49,3.79"></path><path class="cls-2" d="M822.17,508.88c-18.68,0-33.81-5.32-45-15.82s-16.92-24.92-16.92-42.68c0-17.51,5.65-31.76,16.77-42.37S803,392.1,821.22,392.1a86.89,86.89,0,0,1,15.06,1.32,98.17,98.17,0,0,1,15.06,3.94l2.71.94-2,28.4L847,424a43.88,43.88,0,0,0-10.23-4,47.64,47.64,0,0,0-11.24-1.24c-9.18,0-16,2.62-20.83,8s-7.34,13.36-7.34,23.62c0,10.49,2.55,18.6,7.58,24.11s12.08,8.16,21.62,8.16A41.16,41.16,0,0,0,837,481.28a51.25,51.25,0,0,0,10.82-4.3l5.13-2.7,1.72,29-2.69.91a85,85,0,0,1-14.31,3.51,101.12,101.12,0,0,1-15.54,1.16m-.95-109.3c-16.24,0-29.36,4.65-39,13.84s-14.45,21.36-14.45,37c0,15.83,4.77,28,14.57,37.23s23.13,13.79,39.84,13.79a93.48,93.48,0,0,0,14.38-1.07A79.9,79.9,0,0,0,846.9,498l-.7-12a55.17,55.17,0,0,1-7.26,2.48,48.77,48.77,0,0,1-12.39,1.61c-11.59,0-20.73-3.57-27.14-10.59s-9.54-16.75-9.54-29.16c0-12.16,3.12-21.79,9.26-28.62s15.13-10.47,26.39-10.47a55.2,55.2,0,0,1,13,1.45,47.68,47.68,0,0,1,6.86,2.24l.8-11.44A90.17,90.17,0,0,0,835,400.78a79.85,79.85,0,0,0-13.76-1.2"></path><polygon class="cls-2" points="867.77 397.69 895.81 397.69 895.81 441.07 926.42 397.69 957.48 397.69 920.49 446.88 960.66 503.43 927.54 503.43 895.81 454.84 895.81 503.43 867.77 503.43 867.77 397.69"></polygon><path class="cls-2" d="M967.9,507.17H925.52l-26-39.77v39.77H864V394h35.52v35.33L924.49,394H965l-39.85,53Zm-38.33-7.48h23.84l-37.55-52.87L950,401.43H928.36l-32.7,46.34Zm-58.06,0h20.56V401.43H871.51Z"></path><path class="cls-1" d="M492.94,513.19l-.62.08.64,0a1.49,1.49,0,0,0,.66,1.45,13.65,13.65,0,0,1,3.28,4.53c.59,1.17,1.05,2.42,1.69,3.56a19.75,19.75,0,0,0,2,3,1.32,1.32,0,0,0,1.75.39,1.67,1.67,0,0,0,.86-1.64,5.51,5.51,0,0,0-1.23-3.09,25.38,25.38,0,0,0-6.85-6.58c-.76-.52-1.47-1.1-2.21-1.65"></path><path class="cls-1" d="M501.69,526.48a1.5,1.5,0,0,1-1.18-.62,20.68,20.68,0,0,1-2.05-3c-.37-.66-.68-1.37-1-2.05-.22-.5-.45-1-.7-1.52a13.45,13.45,0,0,0-3.25-4.47,1.73,1.73,0,0,1-.73-1.41l-.45,0,0-.3.61-.07H493l0,0h.11v.09l.64.49c.48.36,1,.74,1.47,1.08a25.47,25.47,0,0,1,6.89,6.62,5.73,5.73,0,0,1,1.26,3.18,1.8,1.8,0,0,1-.94,1.77,1.62,1.62,0,0,1-.75.2m-8.61-13a1.45,1.45,0,0,0,.63,1.08,13.86,13.86,0,0,1,3.32,4.57c.26.5.49,1,.71,1.53.3.67.61,1.37,1,2a22.32,22.32,0,0,0,2,3,1.16,1.16,0,0,0,1.57.34,1.48,1.48,0,0,0,.78-1.5,5.4,5.4,0,0,0-1.2-3,25,25,0,0,0-6.81-6.54c-.51-.35-1-.73-1.49-1.1l-.5-.38"></path><path class="cls-1" d="M487.34,586l1.29-.49c2.54-.93,5.14-1.74,7.62-2.83a23.75,23.75,0,0,0,7.75-5.52,12.2,12.2,0,0,0,3.45-6.08c1.07-5.62.15-10.74-4.14-14.87a27.09,27.09,0,0,0-9-5.7c-5.15-2-10.45-3.54-15.74-5.11-4.21-1.24-8.4-2.59-12.54-4a23,23,0,0,1-8.31-5.17,12.16,12.16,0,0,1-3.58-6,15.26,15.26,0,0,1,2.9-13.62,3.45,3.45,0,0,0,1.08-1.68,16.07,16.07,0,0,0-6.32,8.77,21.71,21.71,0,0,0-.61,9,16.84,16.84,0,0,0,5.62,10.8,24.12,24.12,0,0,0,7.36,4.6,114.61,114.61,0,0,0,12.25,4,138.37,138.37,0,0,1,13.9,4.4,21.7,21.7,0,0,1,7.94,5.2,12.25,12.25,0,0,1,0,16.92,24.75,24.75,0,0,1-7.83,5.41c-.85.39-1.74.69-2.57,1.13-.26.14-.38.56-.59.85a2.28,2.28,0,0,0-2,0Z"></path><path class="cls-1" d="M487.4,586.19l-.07,0H484.6l.74-.29a2.39,2.39,0,0,1,2,0l.12-.23a1.26,1.26,0,0,1,.46-.57,16,16,0,0,1,1.53-.69c.35-.15.7-.29,1-.45a24.39,24.39,0,0,0,7.78-5.37,12.09,12.09,0,0,0,0-16.72,21.32,21.32,0,0,0-7.9-5.16,136.19,136.19,0,0,0-13.88-4.39,116.47,116.47,0,0,1-12.27-4,24.79,24.79,0,0,1-7.4-4.63,17,17,0,0,1-5.66-10.89,21.69,21.69,0,0,1,.61-9.06,16.23,16.23,0,0,1,6.37-8.85l.29-.21-.06.36a2.56,2.56,0,0,1-.81,1.41q-.17.17-.3.33a15.22,15.22,0,0,0-2.87,13.5,12,12,0,0,0,3.54,5.91,23.09,23.09,0,0,0,8.25,5.13c4,1.41,8.2,2.77,12.54,4l1.37.41c4.75,1.4,9.67,2.85,14.38,4.7a27.47,27.47,0,0,1,9,5.74c4,3.85,5.37,8.76,4.18,15a12.34,12.34,0,0,1-3.48,6.15,24.08,24.08,0,0,1-7.8,5.56c-1.72.75-3.51,1.38-5.25,2-.8.27-1.59.55-2.38.84l-.88.34-.36.13Zm-29.5-70.91a15.93,15.93,0,0,0-5.92,8.44,21.48,21.48,0,0,0-.6,8.94A16.7,16.7,0,0,0,457,543.37a24.07,24.07,0,0,0,7.31,4.57,113.64,113.64,0,0,0,12.24,4,137.61,137.61,0,0,1,13.91,4.41,21.54,21.54,0,0,1,8,5.23,12.37,12.37,0,0,1,0,17.12,24.58,24.58,0,0,1-7.87,5.44q-.51.24-1.05.45c-.5.21-1,.42-1.51.68-.13.06-.22.24-.32.43h0l.89-.34c.79-.29,1.59-.57,2.38-.84,1.74-.61,3.53-1.24,5.23-2a24.07,24.07,0,0,0,7.71-5.49,12.08,12.08,0,0,0,3.41-6c1.17-6.13-.17-10.95-4.1-14.73a27.05,27.05,0,0,0-8.92-5.67c-4.69-1.85-9.6-3.3-14.36-4.7l-1.36-.4c-4.35-1.29-8.57-2.65-12.55-4a23.28,23.28,0,0,1-8.36-5.21,12.15,12.15,0,0,1-3.62-6A15.49,15.49,0,0,1,457,516.5c.1-.12.2-.23.32-.35a2.62,2.62,0,0,0,.62-.87"></path><path class="cls-1" d="M792.37,572.42c-.16-.18-.26-.4-.4-.43-2.34-.54-3.12-2.12-3.06-4.4.07-2.55,0-5.11,0-7.66,0-4.55.08-9.09.11-13.64a8.21,8.21,0,0,1,4.11-7.29,13.58,13.58,0,0,1,2.25-1.14c4.92-1.9,8.31-.07,10.22,4.46a7.44,7.44,0,0,1,.55,1.89,33.57,33.57,0,0,1,.38,4.23c.06,5.5.05,11,.08,16.48,0,1.42.08,2.84.15,4.26a3.6,3.6,0,0,0,1.7,3.11c2.12,1.23,4.31,1.2,6.82,0a13,13,0,0,0-1.32-.55,3.22,3.22,0,0,1-2.39-3.41c0-.86,0-1.71,0-2.56,0-6.34,0-12.69,0-19a13.45,13.45,0,0,0-.33-3.36c-.87-3.31-3.27-5.18-6.27-6.39a14.39,14.39,0,0,0-5.82-.71,11.47,11.47,0,0,0-9.6,5,11.62,11.62,0,0,1-1.16,1.19,10.88,10.88,0,0,1-.73-1.08c-1.57-2.89-4.16-4.28-7.2-4.9a19.76,19.76,0,0,0-3.36-.19c-5.09-.15-8.77,2.17-11.31,6.54-.31.54-.4,1.26-1.26,1.58-.56-.95-.25-2-.33-3s.19-2.24-.39-3.38c-.64.17-1.16.32-1.69.44-1,.21-2.31-.2-2.81.87a9.37,9.37,0,0,0-.35,3c0,.38,0,.76,0,1.14,0,8.61,0,17.23,0,25.85a33.81,33.81,0,0,1-.44,3.73c.93,0,2,.06,3.15,0a11.51,11.51,0,0,0,3.15-.14c-.21-1-.42-1.89-.59-2.79a4,4,0,0,1,0-.85c0-5.21,0-10.42,0-15.63a23.28,23.28,0,0,1,1.36-8.36,12.29,12.29,0,0,1,6.14-7.07c7.1-3.47,10.82,1,11.91,6.13a14.47,14.47,0,0,1,.22,2.55c0,1.13,0,2.27,0,3.41,0,5-.06,10,0,15.05a40.17,40.17,0,0,0,.35,4.24,3.46,3.46,0,0,0,2.56,3.08,6.88,6.88,0,0,0,5.66-.36"></path><path class="cls-1" d="M789.34,573.36a9.3,9.3,0,0,1-2.68-.44,3.59,3.59,0,0,1-2.66-3.2l-.08-.69a35.09,35.09,0,0,1-.27-3.56c0-3.55,0-7.15,0-10.63,0-1.48,0-3,0-4.43v-.67c0-.9,0-1.83,0-2.74v-.22a13.45,13.45,0,0,0-.21-2.29c-.4-1.87-1.5-5.2-4.38-6.62-2-1-4.49-.8-7.32.59a12.16,12.16,0,0,0-6.07,7,22.87,22.87,0,0,0-1.36,8.3c0,3.65,0,7.35,0,10.94v4.69a2.26,2.26,0,0,1,0,.26,2.06,2.06,0,0,0,0,.56c.12.65.27,1.29.42,2l.21.94-.13,0a6.38,6.38,0,0,1-2.21.16c-.33,0-.66,0-1,0-.79,0-1.59,0-2.3,0l-.86,0h-.16l0-.16c0-.44.12-.87.18-1.28a16,16,0,0,0,.25-2.43c0-6.55,0-13.21,0-19.66v-6.54a7.15,7.15,0,0,1,0-.8c0-.29,0-.6,0-.9a5.42,5.42,0,0,1,.33-2.19c.39-.84,1.25-.86,2-.88a4.47,4.47,0,0,0,.91-.08c.35-.07.7-.17,1.09-.28l.6-.16.11,0,.05.11a4.81,4.81,0,0,1,.39,2.44,8.32,8.32,0,0,0,0,1,5.9,5.9,0,0,1,0,.94,3.73,3.73,0,0,0,.25,1.85,1.7,1.7,0,0,0,.87-1,3.29,3.29,0,0,1,.21-.42c2.63-4.54,6.47-6.76,11.43-6.62H778a13.52,13.52,0,0,1,2.54.19c3.49.71,5.88,2.33,7.31,5a4.63,4.63,0,0,0,.42.64l.2.28.3-.28a5.15,5.15,0,0,0,.72-.77,11.68,11.68,0,0,1,9.72-5,14.25,14.25,0,0,1,5.87.73c3.55,1.42,5.57,3.48,6.36,6.48a13.53,13.53,0,0,1,.34,3.41c0,4.46,0,9,0,13.38,0,1.89,0,3.77,0,5.65,0,.46,0,.91,0,1.36s0,.8,0,1.2a3.06,3.06,0,0,0,2.29,3.27,6.06,6.06,0,0,1,.74.3l.59.26.3.13-.3.14c-2.6,1.23-4.81,1.23-7,0a3.7,3.7,0,0,1-1.77-3.22v-.32c-.06-1.29-.13-2.63-.13-4,0-2.17,0-4.34,0-6.51,0-3.27,0-6.64-.05-10a36.35,36.35,0,0,0-.38-4.22,7,7,0,0,0-.55-1.85c-2-4.65-5.43-6.16-10-4.38a13,13,0,0,0-2.23,1.13,8.09,8.09,0,0,0-4,7.17l-.06,6.58-.06,7c0,1,0,2,0,2.94,0,1.55,0,3.15,0,4.72-.07,2.42.87,3.77,2.94,4.26a.67.67,0,0,1,.34.29l.14.18.12.14-.16.09a6.1,6.1,0,0,1-3.1.81m-13-36.41a6.55,6.55,0,0,1,2.89.65c3,1.48,4.12,4.91,4.53,6.82a13.26,13.26,0,0,1,.22,2.35V547c0,.92,0,1.85,0,2.75v.67c0,1.48,0,3,0,4.43,0,3.48,0,7.08,0,10.62a31.7,31.7,0,0,0,.27,3.53l.07.7a3.33,3.33,0,0,0,2.46,2.95,6.81,6.81,0,0,0,5.4-.26l0-.06c-.06-.08-.14-.18-.18-.19-2.23-.52-3.23-2-3.16-4.55,0-1.57,0-3.16,0-4.71,0-1,0-2,0-2.94,0-2.35,0-4.7.06-7l.06-6.59a8.35,8.35,0,0,1,4.17-7.41,13.18,13.18,0,0,1,2.28-1.15c4.77-1.85,8.37-.29,10.4,4.53a7.51,7.51,0,0,1,.57,1.94,37.53,37.53,0,0,1,.38,4.24c0,3.32,0,6.7,0,10l0,6.51c0,1.31.07,2.64.13,3.93l0,.32a3.47,3.47,0,0,0,1.62,3,6.57,6.57,0,0,0,6.39.15l-.29-.13a5.63,5.63,0,0,0-.71-.29,3.37,3.37,0,0,1-2.5-3.55c0-.4,0-.79,0-1.19s0-.91,0-1.37c0-1.88,0-3.76,0-5.65,0-4.38,0-8.92,0-13.38a13.79,13.79,0,0,0-.33-3.33c-.77-2.91-2.73-4.9-6.19-6.29a14.15,14.15,0,0,0-5.75-.7,11.26,11.26,0,0,0-9.49,4.91,5.82,5.82,0,0,1-.76.82,5.16,5.16,0,0,0-.42.4l-.12.12-.1-.14-.3-.43a6.87,6.87,0,0,1-.44-.66c-1.39-2.56-3.71-4.14-7.1-4.83a13.89,13.89,0,0,0-2.5-.18h-.84c-4.85-.15-8.6,2-11.17,6.47-.07.12-.13.26-.19.39a2,2,0,0,1-1.15,1.25l-.12,0-.06-.11a3.69,3.69,0,0,1-.35-2.12c0-.32,0-.61,0-.91a8.85,8.85,0,0,1,0-1,4.92,4.92,0,0,0-.3-2.19l-.48.13c-.38.11-.75.2-1.11.28a5,5,0,0,1-1,.09c-.73,0-1.43,0-1.75.7a5.3,5.3,0,0,0-.3,2.07c0,.31,0,.62,0,.92a6.6,6.6,0,0,0,0,.77v6.55c0,6.45,0,13.11,0,19.66a16.67,16.67,0,0,1-.25,2.48c-.06.35-.11.72-.16,1.1l.7,0c.7,0,1.5,0,2.28,0l1,0a6.69,6.69,0,0,0,2-.12l-.15-.67c-.15-.68-.29-1.33-.42-2a2.66,2.66,0,0,1,0-.63c0-.08,0-.17,0-.25v-4.69c0-3.59,0-7.29,0-10.94a23.52,23.52,0,0,1,1.37-8.41,12.49,12.49,0,0,1,6.22-7.15,10.74,10.74,0,0,1,4.69-1.24"></path><path class="cls-1" d="M901.06,573.1c-1-1-.82-2.15-.83-3.29,0-5.3,0-10.6,0-15.89a26.74,26.74,0,0,1,1.11-7.27,12.27,12.27,0,0,1,9.13-9.09c4.81-1.27,8.13.34,10.15,5.1a11.77,11.77,0,0,1,.73,3.59c.13,1.6.06,3.21.06,4.82,0,5,0,10,0,15a30,30,0,0,0,.35,3.66,3.42,3.42,0,0,0,1.69,2.49,7.46,7.46,0,0,0,7.1,0c-.56-.23-1-.42-1.38-.55a3.26,3.26,0,0,1-2.33-3.19c0-.47-.05-.94-.05-1.42,0-3.59,0-7.19,0-10.78,0-3.41,0-6.81.07-10.22a8.3,8.3,0,0,0-3.91-7.4,14.41,14.41,0,0,0-3.25-1.65,17.41,17.41,0,0,0-9.14-.44,12.29,12.29,0,0,0-8.43,6c-.29.49-.55,1-.85,1.47-.18.3-.31.71-.9.53-.53-2.12.23-4.41-.43-6.61-1,.21-1.78.43-2.6.53a3.08,3.08,0,0,0-2.51,1c0,.89-.08,2-.08,3.14v26.39a10.12,10.12,0,0,1-.06,2,15.39,15.39,0,0,1-.76,2.05Z"></path><path class="cls-1" d="M926.77,573.29a6.29,6.29,0,0,1-3.41-.9,3.58,3.58,0,0,1-1.76-2.6l-.07-.58a24.63,24.63,0,0,1-.28-3.1c0-3.43,0-6.92,0-10.3,0-1.58,0-3.16,0-4.74,0-.42,0-.84,0-1.26,0-1.17,0-2.38-.06-3.55a11.53,11.53,0,0,0-.73-3.54c-2-4.63-5.22-6.28-10-5a12.14,12.14,0,0,0-9,9,26.55,26.55,0,0,0-1.1,7.23v16.32a3.27,3.27,0,0,0,.79,2.75l.26.26h-7.69l.08-.2c.09-.24.19-.46.28-.68a7.83,7.83,0,0,0,.48-1.35,6.8,6.8,0,0,0,.06-1.43c0-.17,0-.35,0-.53v-9.42q0-8.49,0-17c0-.79,0-1.58.05-2.28,0-.31,0-.6,0-.86v-.06l0,0a2.78,2.78,0,0,1,2.2-1l.4,0a13.74,13.74,0,0,0,1.7-.33l.89-.19.13,0,0,.13a11,11,0,0,1,.27,3.55,11.31,11.31,0,0,0,.14,3c.34.08.45-.11.59-.36a.75.75,0,0,1,.07-.12c.16-.26.31-.53.46-.8l.38-.67a12.38,12.38,0,0,1,8.53-6.12,17.3,17.3,0,0,1,9.22.44,14.47,14.47,0,0,1,3.28,1.66,8.5,8.5,0,0,1,4,7.53c0,2.91-.06,5.87-.07,8.72v1.5q0,5.38,0,10.79a13.38,13.38,0,0,0,.05,1.4,3.11,3.11,0,0,0,2.22,3.06,8.28,8.28,0,0,1,.88.34l.51.21.3.12-.28.15a8.42,8.42,0,0,1-3.84.92M913.41,537c3.34,0,5.75,1.86,7.34,5.62a11.83,11.83,0,0,1,.75,3.63c.1,1.19.08,2.4.07,3.58,0,.41,0,.83,0,1.25,0,1.58,0,3.16,0,4.74,0,3.38,0,6.87,0,10.3a24.15,24.15,0,0,0,.27,3.06l.07.59a3.27,3.27,0,0,0,1.63,2.38,7.24,7.24,0,0,0,6.66.11l-.21-.09c-.31-.13-.58-.24-.85-.33a3.36,3.36,0,0,1-2.43-3.32c0-.48-.06-1-.06-1.43,0-3.59,0-7.19,0-10.78v-1.5c0-2.86,0-5.81.07-8.72a8.21,8.21,0,0,0-3.85-7.28,14.5,14.5,0,0,0-3.21-1.63,17.06,17.06,0,0,0-9.07-.43,12.14,12.14,0,0,0-8.34,6l-.38.67c-.15.27-.3.54-.46.8l-.07.11a.75.75,0,0,1-1,.48l-.08,0,0-.08a11.11,11.11,0,0,1-.18-3.15,10.91,10.91,0,0,0-.21-3.32l-.75.16a16.48,16.48,0,0,1-1.73.34l-.41,0a2.48,2.48,0,0,0-2,.84c0,.25,0,.52,0,.81,0,.69-.05,1.48-.05,2.27v26.39c0,.18,0,.35,0,.52a6.27,6.27,0,0,1-.07,1.5,8.16,8.16,0,0,1-.49,1.41c-.07.15-.13.3-.2.46h6.56a3.86,3.86,0,0,1-.65-2.72c0-.14,0-.28,0-.42V553.92a26.31,26.31,0,0,1,1.11-7.31,12.4,12.4,0,0,1,9.23-9.19,11.4,11.4,0,0,1,3-.43"></path><path class="cls-1" d="M710.56,569.14l-.16-.26c-1.64.6-3.24,1.29-4.91,1.79-8.48,2.54-16.36,0-21.63-7.25a24.72,24.72,0,0,1-4.25-9.5,32.8,32.8,0,0,1,2.14-20.26,20.76,20.76,0,0,1,5.06-7.08,12.56,12.56,0,0,1,7.25-3.44,22.47,22.47,0,0,1,7.26.37,10.15,10.15,0,0,1,7.1,5.48c.36.66.61,1.39,1,2a8.72,8.72,0,0,0,1.43,1.72,1.39,1.39,0,0,0,1.81.15,1.59,1.59,0,0,0,.83-1.91,10.07,10.07,0,0,0-1.31-2.47,14.21,14.21,0,0,0-4.31-3.59,21.82,21.82,0,0,0-15.46-2.34c-8.59,1.62-14.29,6.63-17.27,14.86A29.9,29.9,0,0,0,674.3,555c2,8.23,7,13.88,15,16.63a29,29,0,0,0,5.47,1.21,21.4,21.4,0,0,0,14.82-3,10.34,10.34,0,0,0,1-.78"></path><path class="cls-1" d="M698.29,573.28a27,27,0,0,1-3.54-.25,29.58,29.58,0,0,1-5.49-1.22c-8-2.75-13.06-8.38-15.1-16.74a30.06,30.06,0,0,1,.85-17.69c3-8.32,8.86-13.34,17.38-15A21.77,21.77,0,0,1,708,524.79a14,14,0,0,1,4.35,3.62,9.63,9.63,0,0,1,1.33,2.51,1.73,1.73,0,0,1-.88,2.09,1.55,1.55,0,0,1-2-.17,9.12,9.12,0,0,1-1.45-1.75,10.19,10.19,0,0,1-.63-1.23c-.12-.27-.25-.54-.39-.8a10,10,0,0,0-7-5.4,22.45,22.45,0,0,0-7.2-.38,12.54,12.54,0,0,0-7.17,3.4,20.68,20.68,0,0,0-5,7,32.66,32.66,0,0,0-2.13,20.17,24.37,24.37,0,0,0,4.22,9.44c5.19,7.11,13,9.73,21.47,7.2,1.13-.34,2.26-.78,3.35-1.2l1.55-.59.11,0,.29.48-.1.08-.3.25a5.2,5.2,0,0,1-.68.54,20.92,20.92,0,0,1-11.38,3.23m-1-51a26,26,0,0,0-4.87.48c-8.42,1.59-14.19,6.55-17.17,14.76a29.73,29.73,0,0,0-.83,17.52c2,8.26,7,13.82,14.9,16.53a28.33,28.33,0,0,0,5.44,1.2,21.37,21.37,0,0,0,14.72-2.93,4.41,4.41,0,0,0,.65-.51l.21-.18,0-.05-1.43.55c-1.1.42-2.23.86-3.38,1.2-8.58,2.57-16.52-.09-21.78-7.3a24.85,24.85,0,0,1-4.28-9.56,33,33,0,0,1,2.15-20.35,20.9,20.9,0,0,1,5.09-7.13,12.75,12.75,0,0,1,7.34-3.48,22.52,22.52,0,0,1,7.3.38,10.26,10.26,0,0,1,7.2,5.55c.14.26.27.55.39.82a10.32,10.32,0,0,0,.62,1.19,8.18,8.18,0,0,0,1.4,1.69,1.25,1.25,0,0,0,1.63.14,1.44,1.44,0,0,0,.77-1.74,9.66,9.66,0,0,0-1.29-2.43,13.82,13.82,0,0,0-4.26-3.55,20.58,20.58,0,0,0-10.49-2.8"></path><path class="cls-1" d="M545.58,551.46a52.34,52.34,0,0,1,0-12.45c.07-.28.15-.55.22-.83a6.28,6.28,0,0,1,2.11-3.27,9,9,0,0,1,11.86,0,21,21,0,0,1,2.52,3c.41.52.68,1.14,1.09,1.65a1.73,1.73,0,0,0,2.45.59,1.68,1.68,0,0,0,.35-2.5,8.86,8.86,0,0,0-1.64-1.91c-4.81-4-10.27-4.8-16.08-2.93a11.72,11.72,0,0,0-8.37,9.75,42.54,42.54,0,0,0-.31,4.81c-.09,1.3.22,2.63-.23,3.88-1.9.59-1.9.59-1.79,1l2.07.71V574a8.69,8.69,0,0,1-.07,2,11.74,11.74,0,0,1-.86,2.09c1.29,0,2.41,0,3.52,0s2.36.23,3.57-.28a7.75,7.75,0,0,1-.64-1.39,7.88,7.88,0,0,1-.12-1.69c0-6.72,0-13.44,0-20.16a15.68,15.68,0,0,1,.28-2c1.8,0,3.47,0,5.14-.11.42,0,1,0,.91-.78l-6-.19"></path><path class="cls-1" d="M544.18,578.28l-.76,0c-.35,0-.68,0-1,0-.77,0-1.54,0-2.37,0h-1.38l.09-.2c.11-.26.22-.5.33-.73a6.46,6.46,0,0,0,.52-1.34,6.15,6.15,0,0,0,.08-1.43c0-.17,0-.35,0-.52V553l-2-.71,0-.07c-.15-.53-.08-.56,1.82-1.14a6.67,6.67,0,0,0,.2-2.41,12.34,12.34,0,0,1,0-1.36c0-.54,0-1.09.07-1.63a22.83,22.83,0,0,1,.24-3.19,11.93,11.93,0,0,1,8.48-9.87c6.09-2,11.54-1,16.21,3a8.87,8.87,0,0,1,1.67,1.95,1.83,1.83,0,0,1-.39,2.7,1.86,1.86,0,0,1-2.64-.61,6.84,6.84,0,0,1-.57-.87,8.13,8.13,0,0,0-.52-.78l-.59-.77a13.21,13.21,0,0,0-1.92-2.22A8.9,8.9,0,0,0,548,535a6,6,0,0,0-2.07,3.19l-.08.29c-.05.18-.09.35-.13.53a53.31,53.31,0,0,0,0,12.27l6,.2v.13a.88.88,0,0,1-.17.7,1,1,0,0,1-.78.24h-.09c-1.21,0-2.42.06-3.69.08l-1.33,0c0,.22-.07.42-.1.61a6.88,6.88,0,0,0-.16,1.29c0,6.89,0,13.74,0,20.16a7.6,7.6,0,0,0,.12,1.66,3.48,3.48,0,0,0,.36.84c.09.16.18.33.27.52l.06.14L546,578a4.66,4.66,0,0,1-1.85.32m-1.5-.34.75,0a5.68,5.68,0,0,0,2.34-.22c-.06-.13-.13-.24-.19-.36a3.79,3.79,0,0,1-.39-.92,8.16,8.16,0,0,1-.12-1.71c0-6.43,0-13.28,0-20.17a7.89,7.89,0,0,1,.16-1.34q.06-.35.12-.72v-.13l1.59,0c1.27,0,2.47,0,3.68-.08h.09c.23,0,.46,0,.57-.14a.53.53,0,0,0,.11-.34l-6-.2,0-.12a53.38,53.38,0,0,1,0-12.51c0-.18.09-.36.14-.54l.07-.29a6.37,6.37,0,0,1,2.17-3.34,9.21,9.21,0,0,1,12,0,14.27,14.27,0,0,1,2,2.27c.19.26.38.51.58.76s.37.55.54.82a7.45,7.45,0,0,0,.55.83,1.59,1.59,0,0,0,2.24.56,1.55,1.55,0,0,0,.32-2.3,8.76,8.76,0,0,0-1.62-1.88c-4.58-3.85-9.95-4.83-15.93-2.9a11.53,11.53,0,0,0-8.28,9.64,22.16,22.16,0,0,0-.24,3.15c0,.54,0,1.09-.07,1.64a11.8,11.8,0,0,0,0,1.33,6.91,6.91,0,0,1-.24,2.59l0,.07-.07,0c-1.58.49-1.74.54-1.71.72l2.1.73V574c0,.17,0,.34,0,.51a6.24,6.24,0,0,1-.08,1.5,6.94,6.94,0,0,1-.55,1.41l-.23.51h.94c.81,0,1.58,0,2.35,0h.28"></path><path class="cls-1" d="M534,576.91c-.62-.12-.89-.19-1.16-.23a3.21,3.21,0,0,1-3-3.2,24.3,24.3,0,0,1-.19-2.55c0-4.44.13-8.89.19-13.33,0-2.27.16-4.55.07-6.81-.17-4.4-2.23-7.53-6.37-9.12a18.53,18.53,0,0,0-12.1-.51,11.67,11.67,0,0,0-6,4,10.07,10.07,0,0,0-1.42,2.72,1.4,1.4,0,0,0,.44,1.22,1.87,1.87,0,0,0,1.31.15,1.55,1.55,0,0,0,.88-.64,9.29,9.29,0,0,0,.95-1.72c1.35-3.33,4-4.87,7.32-5.45a6.9,6.9,0,0,1,6.21,1.89,10,10,0,0,1,2.24,3.21,10.49,10.49,0,0,1,.82,7.05c-2.92.5-5.69.88-8.41,1.47a23.16,23.16,0,0,0-7.91,3l1,1.56c2.41-1.57,4.69-3.07,7.37-3.66s5.22-1.33,7.83-1c.19.39.34.55.34.72q.06,7.8.09,15.61a2.67,2.67,0,0,1-1,2,12.22,12.22,0,0,1-10.24,3.58,33.63,33.63,0,0,1-4.95-1.34,7.47,7.47,0,0,0-.65.75,12.73,12.73,0,0,0-.65,1.21c1.64.82,2.2.87,5.22.85a19.07,19.07,0,0,0,11.93-4.2c2.31,4,5.55,5,9.82,2.76"></path><path class="cls-1" d="M511.46,578.5a7.86,7.86,0,0,1-4.48-.87l-.13-.06.07-.14.18-.37c.15-.28.3-.58.48-.85a4,4,0,0,1,.49-.58l.17-.19.06-.06.09,0c.56.16,1.1.33,1.62.5a18.22,18.22,0,0,0,3.31.83,12,12,0,0,0,10.12-3.54,2.52,2.52,0,0,0,.93-1.86c0-6.07-.06-11-.09-15.61a.8.8,0,0,0-.14-.29l-.16-.3a18.71,18.71,0,0,0-6.63.72l-1.07.24c-2.62.58-4.86,2-7.22,3.58l-.22.15L507.71,558l.12-.08a23,23,0,0,1,8-3c1.89-.41,3.77-.71,5.76-1l2.56-.42a10.32,10.32,0,0,0-.83-6.87,10,10,0,0,0-2.21-3.16,6.79,6.79,0,0,0-6.09-1.84c-3.64.63-6,2.38-7.21,5.35a8.72,8.72,0,0,1-1,1.76,1.75,1.75,0,0,1-1,.69,1.92,1.92,0,0,1-1.43-.18,1.53,1.53,0,0,1-.48-1.38,10,10,0,0,1,1.43-2.76,11.89,11.89,0,0,1,6.08-4,18.68,18.68,0,0,1,12.19.52c4.11,1.57,6.29,4.68,6.47,9.24.06,1.59,0,3.22,0,4.78,0,.68,0,1.36-.05,2l-.06,4c-.05,3.07-.1,6.25-.14,9.37a17.89,17.89,0,0,0,.14,1.94l.06.59a3.06,3.06,0,0,0,2.85,3.08c.17,0,.35.06.61.11l.55.11.42.08-.38.2c-4.22,2.21-7.56,1.31-9.92-2.67a19.3,19.3,0,0,1-11.89,4.13h-.81m-4.21-1.07c1.52.75,2.11.8,5,.77A19,19,0,0,0,524.11,574l.13-.1.09.14c2.23,3.88,5.26,4.83,9.23,2.9l-.13,0-.59-.11a3.38,3.38,0,0,1-3.11-3.34c0-.2,0-.39-.06-.59a18.27,18.27,0,0,1-.13-2c0-3.13.09-6.31.13-9.38,0-1.32.05-2.64.07-4,0-.68,0-1.35,0-2,.05-1.57.09-3.19,0-4.77-.18-4.43-2.29-7.45-6.28-9a18.4,18.4,0,0,0-12-.5,11.57,11.57,0,0,0-5.93,3.93,10.09,10.09,0,0,0-1.39,2.68,1.27,1.27,0,0,0,.39,1.05,1.7,1.7,0,0,0,1.19.12,1.45,1.45,0,0,0,.79-.57,9.25,9.25,0,0,0,.93-1.7c1.25-3.08,3.68-4.89,7.44-5.53a7,7,0,0,1,6.33,1.92,10.41,10.41,0,0,1,2.28,3.26,10.67,10.67,0,0,1,.82,7.15l0,.09-.09,0-2.67.44c-2,.32-3.86.62-5.74,1a23,23,0,0,0-7.74,2.9l.82,1.31c2.38-1.56,4.63-3,7.29-3.61l1.06-.24a18.78,18.78,0,0,1,6.82-.71h.07l0,.07c.07.14.13.25.19.35a.87.87,0,0,1,.17.44c0,4.58.06,9.54.09,15.6a2.81,2.81,0,0,1-1,2.08A12.32,12.32,0,0,1,513.28,577a17.52,17.52,0,0,1-3.35-.85l-1.53-.47-.12.13a3.44,3.44,0,0,0-.46.53,9.37,9.37,0,0,0-.46.83,1.63,1.63,0,0,1-.11.23"></path><path class="cls-1" d="M947.71,572.14a52,52,0,0,1-6.17,11.27,12.28,12.28,0,0,1-3.27,3.08,7.9,7.9,0,0,1-10.08-.88c-.63-.57-1.14-1.26-1.74-1.85a9,9,0,0,0-1.5-1.26,1.64,1.64,0,0,0-2,.34,1.44,1.44,0,0,0,.06,2,11.69,11.69,0,0,0,2.33,2c4.53,2.79,11.69,3.08,16.1-2.18a21.31,21.31,0,0,0,1.93-2.44c1.16-1.94,2.29-3.9,3.32-5.92,3.29-6.48,6.52-13,9.79-19.48l9.79-19.42a4.27,4.27,0,0,0-2.78,0c.32.57.58,1,.8,1.46a3,3,0,0,1-.15.65q-6.27,12.69-12.57,25.38c-.14.28-.49.46-.75.69a2.88,2.88,0,0,1-.45-.52c-3.83-8.42-7.63-16.86-11.48-25.27a3.17,3.17,0,0,1,.14-2.58,45.13,45.13,0,0,0-6.66.12l15.38,34.7"></path><path class="cls-1" d="M932.32,589a13.7,13.7,0,0,1-7.09-2,11.18,11.18,0,0,1-2.36-2,1.58,1.58,0,0,1-.07-2.25,1.79,1.79,0,0,1,2.23-.36,9.06,9.06,0,0,1,1.52,1.28c.27.26.52.55.77.83s.62.7,1,1a7.8,7.8,0,0,0,9.91.86,11.92,11.92,0,0,0,3.23-3,51.89,51.89,0,0,0,6.13-11.18l-15.43-34.82.19,0a31.15,31.15,0,0,1,5-.15c.56,0,1.13,0,1.7,0h.21l-.07.2a3,3,0,0,0-.15,2.47c2.66,5.81,5.35,11.73,7.94,17.45l3.54,7.82a1.12,1.12,0,0,0,.22.26l.12.12.16-.13a1.39,1.39,0,0,0,.44-.43c4.36-8.77,8.77-17.69,12.57-25.37a1.31,1.31,0,0,0,.08-.34c0-.07,0-.15.05-.23l-.86-1.55.16-.06a4.3,4.3,0,0,1,2.87-.06l.17,0-3.08,6.11L956.57,557q-1.74,3.45-3.46,6.9c-2.07,4.12-4.21,8.39-6.33,12.58-.91,1.79-2,3.67-3.33,5.92a14.07,14.07,0,0,1-1.49,1.94l-.44.52a11.76,11.76,0,0,1-9.2,4.19m-8.16-6.57a1.54,1.54,0,0,0-1.14.51,1.28,1.28,0,0,0,.06,1.85,11.35,11.35,0,0,0,2.3,2c4.51,2.78,11.62,3,15.91-2.15l.45-.53a14.67,14.67,0,0,0,1.46-1.89c1.36-2.25,2.41-4.13,3.32-5.91,2.12-4.18,4.26-8.45,6.33-12.58q1.73-3.45,3.46-6.89c2.25-4.49,4.52-9,6.79-13.48l2.92-5.78a4.08,4.08,0,0,0-2.36,0l.75,1.35V539c0,.1,0,.19-.06.27a1.72,1.72,0,0,1-.11.42c-3.79,7.68-8.21,16.6-12.56,25.37a1.64,1.64,0,0,1-.54.54l-.25.2-.11.1-.1-.11-.2-.21a1.07,1.07,0,0,1-.27-.35c-1.19-2.6-2.37-5.21-3.55-7.81-2.59-5.73-5.27-11.65-7.93-17.46a3.07,3.07,0,0,1,.07-2.5c-.51,0-1,0-1.51,0a31.29,31.29,0,0,0-4.73.13l15.32,34.58,0,.06a52.12,52.12,0,0,1-6.19,11.3,12.09,12.09,0,0,1-3.31,3.12,8.07,8.07,0,0,1-10.25-.9,10.78,10.78,0,0,1-1-1c-.24-.27-.49-.55-.76-.81a8.49,8.49,0,0,0-1.47-1.24,1.32,1.32,0,0,0-.71-.2"></path><path class="cls-1" d="M631,578h7.76c-1.66-1.33-1.32-2.87-1.32-4.34,0-9.44,0-18.89,0-28.34a9.26,9.26,0,0,0-.24-3.25c-1.62.95-3.55.48-5.17,1.71,0,1,0,2,0,3q0,13.75,0,27.49a5.28,5.28,0,0,1-1,3.69"></path><path class="cls-1" d="M639.18,578.18h-8.42l.15-.28a5.14,5.14,0,0,0,.89-3.56q0-6.87,0-13.74V546.85c0-.71,0-1.43,0-2.12,0-.31,0-.62,0-.93v-.07l.06,0a6.24,6.24,0,0,1,2.89-1,6.59,6.59,0,0,0,2.3-.69l.15-.09.06.17a7.08,7.08,0,0,1,.26,2.64c0,.22,0,.44,0,.66q0,7.67,0,15.34,0,6.49,0,13c0,.22,0,.43,0,.65,0,1.27-.08,2.48,1.28,3.57Zm-7.93-.3h7.12a4.11,4.11,0,0,1-1.09-3.55c0-.22,0-.43,0-.64v-13q0-7.66,0-15.34c0-.22,0-.44,0-.67a7,7,0,0,0-.2-2.36,7.45,7.45,0,0,1-2.23.63,6.18,6.18,0,0,0-2.71.93c0,.28,0,.57,0,.86,0,.69,0,1.4,0,2.11v27.49a5.21,5.21,0,0,1-.85,3.54"></path><path class="cls-1" d="M631.81,535.42a2.82,2.82,0,0,0,2.79,2.92,3,3,0,0,0,2.8-3,3,3,0,0,0-2.84-2.92,2.85,2.85,0,0,0-2.75,3"></path><path class="cls-1" d="M634.53,538.49a2.77,2.77,0,0,1-1.94-.81,3.19,3.19,0,0,1-.93-2.25,3,3,0,0,1,2.9-3.13h0a3.1,3.1,0,0,1,0,6.19h-.07m.05-5.89h0a2.69,2.69,0,0,0-2.6,2.82,2.88,2.88,0,0,0,.83,2.05,2.45,2.45,0,0,0,1.81.72,2.8,2.8,0,0,0,0-5.59"></path><path class="cls-1" d="M598.76,553l-8.31,2.15a6.32,6.32,0,0,0-.23,1.22c-.07,4.44-.14,8.89-.17,13.34a24.14,24.14,0,0,0,.19,3.4c.32,2.4,1,3.09,3.52,3.66a2.45,2.45,0,0,1,.56.35,7.23,7.23,0,0,1-5.42.83,4.88,4.88,0,0,1-4-3.73,16.16,16.16,0,0,0-1.51.84,17.31,17.31,0,0,1-9.72,3.22,33.47,33.47,0,0,1-4.48-.08,8.37,8.37,0,0,1-6.82-4.39,10.26,10.26,0,0,1,1.32-12.33,20.51,20.51,0,0,1,7.25-4.73,41.4,41.4,0,0,1,11.7-2.75c.56-.05,1.11-.13,1.67-.22.07,0,.14-.12.2-.18s.24-.32.25-.49a14.48,14.48,0,0,0-2-8.42,6.26,6.26,0,0,0-5.27-3.29,10.39,10.39,0,0,0-6.65,1.82,6.5,6.5,0,0,0-2.17,2.56,23,23,0,0,1-1.19,2.25,4.08,4.08,0,0,1-1.17,1.17,1.2,1.2,0,0,1-1.82-1,3.66,3.66,0,0,1,.93-2.6,12.39,12.39,0,0,1,5.62-4.1,18.84,18.84,0,0,1,14,.67,8.39,8.39,0,0,1,4.85,5.56,15.15,15.15,0,0,1,.42,2.79c.08.92.08,1.86.12,3a7.56,7.56,0,0,0,1.67.19,14.58,14.58,0,0,0,6.74-2.31c0-.75.11-1.59.13-2.42,0-1.14,0-2.28,0-3.41,0-2,.17-2.15,2.21-2.52q.84-.15,1.65-.33c.43-.1.85-.22,1.44-.38.06,1.29.12,2.41.19,3.83a11.91,11.91,0,0,0,1.22-.85c.35-.31.62-.71,1-1a11.24,11.24,0,0,1,8.65-3.32,15.5,15.5,0,0,1,8.38,2.87,7.22,7.22,0,0,1,2.53,3,1.85,1.85,0,0,1-.38,2.32,1.68,1.68,0,0,1-2.22-.57,21.58,21.58,0,0,1-1.35-2.15,8.74,8.74,0,0,0-9-4.57,10.35,10.35,0,0,0-8.92,9.75c-.05,7.67,0,15.33,0,23,0,1.6,0,1.6.92,3.54a49.18,49.18,0,0,1-6.88-.07,19.94,19.94,0,0,0,.53-3.1c0-6.72,0-13.44,0-20.16a16.88,16.88,0,0,0-.17-1.75m-14.06,2.12c-2.21-.45-4,.11-5.86.38a20.06,20.06,0,0,0-8.48,3.48c-3.34,2.27-4.69,5.54-4.7,9.44a8,8,0,0,0,6.1,8.17,12.38,12.38,0,0,0,11.55-2.65,4,4,0,0,0,1.57-3.41c-.09-4.54,0-9.07,0-13.61,0-.55-.09-1.1-.14-1.8"></path><path class="cls-1" d="M571.89,578.42c-1,0-1.89,0-2.75-.11a8.49,8.49,0,0,1-6.93-4.47,10.48,10.48,0,0,1,1.34-12.51,20.88,20.88,0,0,1,7.31-4.76,41.24,41.24,0,0,1,11.74-2.76c.52,0,1-.12,1.66-.22l0-.06.06-.07.09-.14a.89.89,0,0,0,.13-.26,14.38,14.38,0,0,0-2-8.34,6.14,6.14,0,0,0-5.15-3.21,10.21,10.21,0,0,0-6.56,1.8,6.4,6.4,0,0,0-2.12,2.49l-.22.44a18,18,0,0,1-1,1.83,4.14,4.14,0,0,1-1.21,1.22,1.29,1.29,0,0,1-1.29.06,1.45,1.45,0,0,1-.76-1.19,3.84,3.84,0,0,1,1-2.71,12.44,12.44,0,0,1,5.68-4.14,19,19,0,0,1,14.06.67,8.51,8.51,0,0,1,4.94,5.65,14.56,14.56,0,0,1,.4,2.62l0,.2c.06.64.08,1.29.09,2l0,.87.48.08a3.92,3.92,0,0,0,1,.1,14.37,14.37,0,0,0,6.61-2.25c0-.21,0-.42,0-.64,0-.55.07-1.13.08-1.71s0-1.1,0-1.66,0-1.16,0-1.74c.05-2.08.23-2.28,2.34-2.67.61-.11,1.13-.21,1.64-.32l.9-.24.53-.14.17-.05.19,3.75.29-.18a7,7,0,0,0,.71-.51c.17-.16.33-.34.49-.52s.3-.35.47-.51a11.32,11.32,0,0,1,8.76-3.36,15.62,15.62,0,0,1,8.45,2.9,7.42,7.42,0,0,1,2.59,3,2,2,0,0,1-.44,2.49,1.84,1.84,0,0,1-2.42-.6,17.47,17.47,0,0,1-1.16-1.82l-.2-.34a8.64,8.64,0,0,0-8.82-4.51,10.29,10.29,0,0,0-8.79,9.61c0,6,0,12.12,0,18v5a5.37,5.37,0,0,0,.83,3.3l.17.38-1.17,0a40.32,40.32,0,0,1-5.94-.09l-.16,0,0-.15c.06-.37.14-.72.22-1.06a9.78,9.78,0,0,0,.3-2c0-6.15,0-12.4,0-18.45v-1.71a9.27,9.27,0,0,0-.1-1.13l-.06-.43-8.06,2.08c0,.07,0,.15-.05.23a3.52,3.52,0,0,0-.15.87c-.06,3.67-.14,8.5-.18,13.34a26.62,26.62,0,0,0,.19,3.38c.31,2.31.94,3,3.41,3.54a.81.81,0,0,1,.35.19l.26.17.2.13-.2.12a7.35,7.35,0,0,1-5.52.85,5,5,0,0,1-4.1-3.65l-.41.21a6.57,6.57,0,0,0-.92.54,17.66,17.66,0,0,1-9.8,3.24l-1.76,0m4.85-37.24.77,0a6.46,6.46,0,0,1,5.39,3.37,14.66,14.66,0,0,1,2,8.5.85.85,0,0,1-.18.41l-.09.14,0,0-.05.06a.44.44,0,0,1-.23.17c-.62.09-1.14.17-1.67.22A40.76,40.76,0,0,0,571,556.85a20.4,20.4,0,0,0-7.21,4.69,10.16,10.16,0,0,0-1.29,12.16,8.21,8.21,0,0,0,6.7,4.31,33.65,33.65,0,0,0,4.47.08,17,17,0,0,0,9.64-3.19,9.38,9.38,0,0,1,1-.55l.56-.3L585,574l0,.18a4.7,4.7,0,0,0,3.92,3.62,7.08,7.08,0,0,0,5.12-.69L594,577a1.06,1.06,0,0,0-.24-.15c-2.6-.59-3.31-1.33-3.64-3.78a24,24,0,0,1-.19-3.42c0-4.84.11-9.67.18-13.35a3.85,3.85,0,0,1,.15-.93c0-.11.06-.22.08-.31V555l8.57-2.22v.17c0,.21.05.41.08.61a9.4,9.4,0,0,1,.1,1.16v1.71c0,6.05,0,12.3,0,18.45a9.52,9.52,0,0,1-.31,2.08c-.06.29-.13.59-.18.89a42,42,0,0,0,5.74.08l.73,0a5.53,5.53,0,0,1-.84-3.39v-5c0-5.92,0-12,0-18a10.44,10.44,0,0,1,9.06-9.9,8.92,8.92,0,0,1,9.1,4.65l.19.34a17.49,17.49,0,0,0,1.14,1.79,1.56,1.56,0,0,0,2,.53,1.73,1.73,0,0,0,.32-2.13,7,7,0,0,0-2.49-2.91,15.35,15.35,0,0,0-8.3-2.85,11.08,11.08,0,0,0-8.54,3.29c-.16.15-.31.32-.45.48a5.38,5.38,0,0,1-.52.55,7.14,7.14,0,0,1-.74.54l-.5.32-.21.15-.2-3.91-.35.1c-.34.09-.63.17-.92.23-.52.12-1,.22-1.65.33-2,.37-2.05.44-2.09,2.38,0,.58,0,1.17,0,1.74s0,1.11,0,1.67-.05,1.16-.08,1.72c0,.24,0,.48,0,.71v.07l-.06,0a14.4,14.4,0,0,1-6.8,2.34,3.63,3.63,0,0,1-1.12-.1c-.19,0-.38-.07-.59-.09l-.12,0v-.12c0-.35,0-.68,0-1,0-.68,0-1.32-.09-1.95l0-.21a14.4,14.4,0,0,0-.39-2.55,8.26,8.26,0,0,0-4.77-5.47,18.74,18.74,0,0,0-13.85-.66,12.11,12.11,0,0,0-5.55,4,3.48,3.48,0,0,0-.9,2.5,1.12,1.12,0,0,0,.6.94,1,1,0,0,0,1,0,3.67,3.67,0,0,0,1.11-1.14,14.82,14.82,0,0,0,1-1.8l.22-.43a6.61,6.61,0,0,1,2.22-2.61,10.52,10.52,0,0,1,6-1.88m-1.57,36a13.35,13.35,0,0,1-3.44-.46,8.2,8.2,0,0,1-6.22-8.32c0-4.2,1.61-7.42,4.77-9.56a20.1,20.1,0,0,1,8.54-3.51l1.19-.2a12,12,0,0,1,4.71-.18l.11,0v.11q0,.36.06.66c0,.42.08.79.08,1.16,0,1.46,0,2.92,0,4.38,0,3,0,6.15,0,9.22A4.13,4.13,0,0,1,583.4,574a12.75,12.75,0,0,1-8.23,3.14m7.83-22.1a16.43,16.43,0,0,0-2.94.34l-1.2.2a20,20,0,0,0-8.42,3.46c-3.11,2.12-4.63,5.17-4.64,9.32a7.91,7.91,0,0,0,6,8,12.26,12.26,0,0,0,11.42-2.62,3.86,3.86,0,0,0,1.51-3.3c-.06-3.08-.05-6.21,0-9.23v-4.38c0-.36,0-.72-.08-1.13,0-.17,0-.36-.05-.55a8.53,8.53,0,0,0-1.56-.14"></path><path class="cls-1" d="M792.37,572.42a6.88,6.88,0,0,1-5.66.36,3.46,3.46,0,0,1-2.56-3.08,40.17,40.17,0,0,1-.35-4.24c0-5,0-10,0-15.05,0-1.14,0-2.28,0-3.41a14.47,14.47,0,0,0-.22-2.55c-1.09-5.09-4.81-9.6-11.91-6.13a12.29,12.29,0,0,0-6.14,7.07,23.28,23.28,0,0,0-1.36,8.36c0,5.21,0,10.42,0,15.63a4,4,0,0,0,0,.85c.17.9.38,1.8.59,2.79a11.51,11.51,0,0,1-3.15.14c-1.11,0-2.22,0-3.15,0a33.81,33.81,0,0,0,.44-3.73c0-8.62,0-17.24,0-25.85,0-.38,0-.76,0-1.14a9.37,9.37,0,0,1,.35-3c.5-1.07,1.83-.66,2.81-.87.53-.12,1-.27,1.69-.44.58,1.14.29,2.29.39,3.38s-.23,2,.33,3c.86-.32,1-1,1.26-1.58,2.54-4.37,6.22-6.69,11.31-6.54a19.76,19.76,0,0,1,3.36.19c3,.62,5.63,2,7.2,4.9a10.88,10.88,0,0,0,.73,1.08,11.62,11.62,0,0,0,1.16-1.19,11.47,11.47,0,0,1,9.6-5A14.39,14.39,0,0,1,805,537c3,1.21,5.4,3.08,6.27,6.39a13.45,13.45,0,0,1,.33,3.36c0,6.35,0,12.7,0,19,0,.85,0,1.7,0,2.56a3.22,3.22,0,0,0,2.39,3.41,13,13,0,0,1,1.32.55c-2.51,1.19-4.7,1.22-6.82,0a3.6,3.6,0,0,1-1.7-3.11c-.07-1.42-.14-2.84-.15-4.26,0-5.49,0-11-.08-16.48a33.57,33.57,0,0,0-.38-4.23,7.44,7.44,0,0,0-.55-1.89c-1.91-4.53-5.3-6.36-10.22-4.46a13.58,13.58,0,0,0-2.25,1.14,8.21,8.21,0,0,0-4.11,7.29c0,4.55-.09,9.09-.11,13.64,0,2.55.05,5.11,0,7.66-.06,2.28.72,3.86,3.06,4.4.14,0,.24.25.4.43"></path><path class="cls-1" d="M789.34,573.36a9.3,9.3,0,0,1-2.68-.44,3.59,3.59,0,0,1-2.66-3.2l-.08-.69a35.09,35.09,0,0,1-.27-3.56c0-3.55,0-7.15,0-10.63,0-1.48,0-3,0-4.43v-.67c0-.9,0-1.83,0-2.74v-.22a13.45,13.45,0,0,0-.21-2.29c-.4-1.87-1.5-5.2-4.38-6.62-2-1-4.49-.8-7.32.59a12.16,12.16,0,0,0-6.07,7,22.87,22.87,0,0,0-1.36,8.3c0,3.65,0,7.35,0,10.94v4.69a2.26,2.26,0,0,1,0,.26,2.06,2.06,0,0,0,0,.56c.12.65.27,1.29.42,2l.21.94-.13,0a6.38,6.38,0,0,1-2.21.16c-.33,0-.66,0-1,0-.79,0-1.59,0-2.3,0l-.86,0h-.16l0-.16c0-.44.12-.87.18-1.28a16,16,0,0,0,.25-2.43c0-6.55,0-13.21,0-19.66v-6.54a7.15,7.15,0,0,1,0-.8c0-.29,0-.6,0-.9a5.42,5.42,0,0,1,.33-2.19c.39-.84,1.25-.86,2-.88a4.47,4.47,0,0,0,.91-.08c.35-.07.7-.17,1.09-.28l.6-.16.11,0,.05.11a4.81,4.81,0,0,1,.39,2.44,8.32,8.32,0,0,0,0,1,5.9,5.9,0,0,1,0,.94,3.73,3.73,0,0,0,.25,1.85,1.7,1.7,0,0,0,.87-1,3.29,3.29,0,0,1,.21-.42c2.63-4.54,6.47-6.76,11.43-6.62H778a13.52,13.52,0,0,1,2.54.19c3.49.71,5.88,2.33,7.31,5a4.63,4.63,0,0,0,.42.64l.2.28.3-.28a5.15,5.15,0,0,0,.72-.77,11.68,11.68,0,0,1,9.72-5,14.25,14.25,0,0,1,5.87.73c3.55,1.42,5.57,3.48,6.36,6.48a13.53,13.53,0,0,1,.34,3.41c0,4.46,0,9,0,13.38,0,1.89,0,3.77,0,5.65,0,.46,0,.91,0,1.36s0,.8,0,1.2a3.06,3.06,0,0,0,2.29,3.27,6.06,6.06,0,0,1,.74.3l.59.26.3.13-.3.14c-2.6,1.23-4.81,1.23-7,0a3.7,3.7,0,0,1-1.77-3.22v-.32c-.06-1.29-.13-2.63-.13-4,0-2.17,0-4.34,0-6.51,0-3.27,0-6.64-.05-10a36.35,36.35,0,0,0-.38-4.22,7,7,0,0,0-.55-1.85c-2-4.65-5.43-6.16-10-4.38a13,13,0,0,0-2.23,1.13,8.09,8.09,0,0,0-4,7.17l-.06,6.58-.06,7c0,1,0,2,0,2.94,0,1.55,0,3.15,0,4.72-.07,2.42.87,3.77,2.94,4.26a.67.67,0,0,1,.34.29l.14.18.12.14-.16.09a6.1,6.1,0,0,1-3.1.81m-13-36.41a6.55,6.55,0,0,1,2.89.65c3,1.48,4.12,4.91,4.53,6.82a13.26,13.26,0,0,1,.22,2.35V547c0,.92,0,1.85,0,2.75v.67c0,1.48,0,3,0,4.43,0,3.48,0,7.08,0,10.62a31.7,31.7,0,0,0,.27,3.53l.07.7a3.33,3.33,0,0,0,2.46,2.95,6.81,6.81,0,0,0,5.4-.26l0-.06c-.06-.08-.14-.18-.18-.19-2.23-.52-3.23-2-3.16-4.55,0-1.57,0-3.16,0-4.71,0-1,0-2,0-2.94,0-2.35,0-4.7.06-7l.06-6.59a8.35,8.35,0,0,1,4.17-7.41,13.18,13.18,0,0,1,2.28-1.15c4.77-1.85,8.37-.29,10.4,4.53a7.51,7.51,0,0,1,.57,1.94,37.53,37.53,0,0,1,.38,4.24c0,3.32,0,6.7,0,10l0,6.51c0,1.31.07,2.64.13,3.93l0,.32a3.47,3.47,0,0,0,1.62,3,6.57,6.57,0,0,0,6.39.15l-.29-.13a5.63,5.63,0,0,0-.71-.29,3.37,3.37,0,0,1-2.5-3.55c0-.4,0-.79,0-1.19s0-.91,0-1.37c0-1.88,0-3.76,0-5.65,0-4.38,0-8.92,0-13.38a13.79,13.79,0,0,0-.33-3.33c-.77-2.91-2.73-4.9-6.19-6.29a14.15,14.15,0,0,0-5.75-.7,11.26,11.26,0,0,0-9.49,4.91,5.82,5.82,0,0,1-.76.82,5.16,5.16,0,0,0-.42.4l-.12.12-.1-.14-.3-.43a6.87,6.87,0,0,1-.44-.66c-1.39-2.56-3.71-4.14-7.1-4.83a13.89,13.89,0,0,0-2.5-.18h-.84c-4.85-.15-8.6,2-11.17,6.47-.07.12-.13.26-.19.39a2,2,0,0,1-1.15,1.25l-.12,0-.06-.11a3.69,3.69,0,0,1-.35-2.12c0-.32,0-.61,0-.91a8.85,8.85,0,0,1,0-1,4.92,4.92,0,0,0-.3-2.19l-.48.13c-.38.11-.75.2-1.11.28a5,5,0,0,1-1,.09c-.73,0-1.43,0-1.75.7a5.3,5.3,0,0,0-.3,2.07c0,.31,0,.62,0,.92a6.6,6.6,0,0,0,0,.77v6.55c0,6.45,0,13.11,0,19.66a16.67,16.67,0,0,1-.25,2.48c-.06.35-.11.72-.16,1.1l.7,0c.7,0,1.5,0,2.28,0l1,0a6.69,6.69,0,0,0,2-.12l-.15-.67c-.15-.68-.29-1.33-.42-2a2.66,2.66,0,0,1,0-.63c0-.08,0-.17,0-.25v-4.69c0-3.59,0-7.29,0-10.94a23.52,23.52,0,0,1,1.37-8.41,12.49,12.49,0,0,1,6.22-7.15,10.74,10.74,0,0,1,4.69-1.24"></path><path class="cls-1" d="M487.38,586c.18-.3.3-.72.56-.86.83-.44,1.72-.74,2.57-1.13a24.75,24.75,0,0,0,7.83-5.41,12.25,12.25,0,0,0,0-16.92,21.78,21.78,0,0,0-7.94-5.2,138.37,138.37,0,0,0-13.9-4.4,114.61,114.61,0,0,1-12.25-4,24.12,24.12,0,0,1-7.36-4.6,16.84,16.84,0,0,1-5.62-10.8,21.71,21.71,0,0,1,.61-9,16.1,16.1,0,0,1,6.31-8.77,3.38,3.38,0,0,1-1.07,1.68,15.26,15.26,0,0,0-2.9,13.62,12.12,12.12,0,0,0,3.58,6,23.14,23.14,0,0,0,8.31,5.18c4.14,1.45,8.33,2.8,12.54,4,5.29,1.57,10.59,3.09,15.74,5.11a27.09,27.09,0,0,1,9,5.7c4.29,4.13,5.21,9.25,4.14,14.87a12.2,12.2,0,0,1-3.45,6.08,23.75,23.75,0,0,1-7.75,5.52c-2.48,1.09-5.08,1.9-7.62,2.83l-1.29.49Z"></path><path class="cls-1" d="M487.44,586.2l-.54-.18.39-.15.12-.22a1.2,1.2,0,0,1,.47-.62,16,16,0,0,1,1.53-.69c.35-.15.7-.29,1-.45a24.39,24.39,0,0,0,7.78-5.37,12.09,12.09,0,0,0,0-16.72,21.32,21.32,0,0,0-7.9-5.16,136.19,136.19,0,0,0-13.88-4.39,116.47,116.47,0,0,1-12.27-4,24.79,24.79,0,0,1-7.4-4.63,17,17,0,0,1-5.66-10.89,21.69,21.69,0,0,1,.61-9.06,16.23,16.23,0,0,1,6.37-8.85l.29-.21-.06.36a2.56,2.56,0,0,1-.81,1.41q-.17.17-.3.33a15.22,15.22,0,0,0-2.87,13.5,12,12,0,0,0,3.54,5.91,23.09,23.09,0,0,0,8.25,5.13c4,1.41,8.2,2.77,12.54,4l1.37.41c4.75,1.4,9.67,2.85,14.38,4.7a27.47,27.47,0,0,1,9,5.74c4,3.85,5.37,8.76,4.18,15a12.34,12.34,0,0,1-3.48,6.15,24.08,24.08,0,0,1-7.8,5.56c-1.72.75-3.51,1.38-5.25,2-.8.27-1.59.55-2.38.84l-.87.33-.32.12ZM457.9,515.28a15.93,15.93,0,0,0-5.92,8.44,21.48,21.48,0,0,0-.6,8.94A16.7,16.7,0,0,0,457,543.37a24.07,24.07,0,0,0,7.31,4.57,113.64,113.64,0,0,0,12.24,4,137.61,137.61,0,0,1,13.91,4.41,21.54,21.54,0,0,1,8,5.23,12.37,12.37,0,0,1,0,17.12,24.58,24.58,0,0,1-7.87,5.44q-.51.24-1.05.45c-.5.21-1,.42-1.51.68a.94.94,0,0,0-.31.43h0l.87-.33c.79-.29,1.59-.57,2.38-.84,1.74-.61,3.53-1.24,5.23-2a24.07,24.07,0,0,0,7.71-5.49,12.08,12.08,0,0,0,3.41-6c1.17-6.13-.17-10.95-4.1-14.73a27.05,27.05,0,0,0-8.92-5.67c-4.69-1.85-9.6-3.3-14.36-4.7l-1.36-.4c-4.35-1.29-8.57-2.65-12.55-4a23.28,23.28,0,0,1-8.36-5.21,12.15,12.15,0,0,1-3.62-6A15.49,15.49,0,0,1,457,516.5c.1-.12.2-.23.32-.35a2.62,2.62,0,0,0,.62-.87"></path><path class="cls-1" d="M819.69,537.76c3.06,1.39,5.64.68,8.23-.26a17.72,17.72,0,0,1,10.78-.27c6.49,1.72,10.31,6.21,12,12.64a19.77,19.77,0,0,1-.86,12.52c-2.73,7-9.21,11-17.22,10.6a11,11,0,0,1-5.27-1.76l-1.55-1c-.83.37-.64,1-.64,1.53,0,4.64,0,9.27,0,13.91,0,.93,0,1.86-.08,2.8-1.44-.24-2.73-.43-4-.67a1.5,1.5,0,0,1-1.33-1.56c0-.47,0-1,0-1.42V537.76Zm5.45,2.31v25.26c0,.38,0,.76,0,1.14a3.07,3.07,0,0,0,1,2.27,10.09,10.09,0,0,0,14.37.81,14.41,14.41,0,0,0,3.92-5.79,24.55,24.55,0,0,0,1.52-11.41,20.74,20.74,0,0,0-3.29-9.84c-4.11-5.94-11.39-7.07-17.47-2.44"></path><path class="cls-1" d="M825.19,588.64l-.16,0-1.28-.2c-1-.16-1.84-.3-2.73-.46a1.66,1.66,0,0,1-1.45-1.7c0-.39,0-.78,0-1.16V537.53l.21.1c3,1.37,5.57.66,8.12-.27a17.87,17.87,0,0,1,10.86-.27c6.26,1.66,10.33,5.94,12.1,12.74a20,20,0,0,1-.86,12.61c-2.76,7-9.42,11.13-17.36,10.69a10.82,10.82,0,0,1-5.35-1.78l-1.12-.71-.36-.24c-.54.27-.52.66-.49,1.1,0,.09,0,.17,0,.26q0,4.15,0,8.31v5.6c0,.64,0,1.3,0,1.93,0,.29,0,.58,0,.87ZM819.84,538v47.1a10.89,10.89,0,0,0,0,1.14,1.38,1.38,0,0,0,1.21,1.43c.89.16,1.78.3,2.72.45l1.12.18c0-.23,0-.47,0-.7,0-.63.06-1.28.06-1.92v-5.6q0-4.16,0-8.31a1.92,1.92,0,0,0,0-.24,1.21,1.21,0,0,1,.73-1.42l.08,0,.49.32,1.11.71a10.77,10.77,0,0,0,5.21,1.74c7.83.42,14.36-3.61,17.08-10.51a19.71,19.71,0,0,0,.85-12.42c-1.75-6.69-5.75-10.91-11.89-12.54a17.62,17.62,0,0,0-10.69.27c-2.45.89-5.09,1.64-8.13.35m13.83,34.34a10.39,10.39,0,0,1-7.69-3.49,3.15,3.15,0,0,1-1-2.38c0-.24,0-.47,0-.71s0-.28,0-.42V540l.06,0a12.77,12.77,0,0,1,9.76-2.75,12,12,0,0,1,7.92,5.22,20.6,20.6,0,0,1,3.31,9.9,24.56,24.56,0,0,1-1.53,11.48,14.38,14.38,0,0,1-4,5.85,10.39,10.39,0,0,1-6.89,2.67m-8.39-32.18v25.18c0,.14,0,.27,0,.41s0,.49,0,.73a2.94,2.94,0,0,0,.91,2.17,9.93,9.93,0,0,0,14.16.8,14.12,14.12,0,0,0,3.88-5.74,24.21,24.21,0,0,0,1.51-11.34,20.27,20.27,0,0,0-3.26-9.76,11.7,11.7,0,0,0-7.73-5.1,12.48,12.48,0,0,0-9.48,2.65"></path><path class="cls-1" d="M901.06,573.1H894a15.39,15.39,0,0,0,.76-2.05,10.12,10.12,0,0,0,.06-2V542.67c0-1.13.06-2.25.08-3.14a3.08,3.08,0,0,1,2.51-1c.82-.1,1.62-.32,2.6-.53.66,2.2-.1,4.49.43,6.61.59.18.72-.23.9-.53.3-.48.56-1,.85-1.47a12.29,12.29,0,0,1,8.43-6,17.41,17.41,0,0,1,9.14.44,14.41,14.41,0,0,1,3.25,1.65,8.3,8.3,0,0,1,3.91,7.4c0,3.41-.06,6.81-.07,10.22,0,3.59,0,7.19,0,10.78,0,.48,0,.95.05,1.42a3.26,3.26,0,0,0,2.33,3.19c.42.13.82.32,1.38.55a7.46,7.46,0,0,1-7.1,0,3.42,3.42,0,0,1-1.69-2.49,30,30,0,0,1-.35-3.66c0-5,0-10,0-15,0-1.61.07-3.22-.06-4.82a11.77,11.77,0,0,0-.73-3.59c-2-4.76-5.34-6.37-10.15-5.1a12.27,12.27,0,0,0-9.13,9.09,26.74,26.74,0,0,0-1.11,7.27c0,5.29,0,10.59,0,15.89,0,1.14-.16,2.34.83,3.29"></path><path class="cls-1" d="M926.77,573.29a6.29,6.29,0,0,1-3.41-.9,3.58,3.58,0,0,1-1.76-2.6l-.07-.58a24.63,24.63,0,0,1-.28-3.1c0-3.43,0-6.92,0-10.3,0-1.58,0-3.16,0-4.74,0-.42,0-.84,0-1.26,0-1.17,0-2.38-.06-3.55a11.53,11.53,0,0,0-.73-3.54c-2-4.63-5.22-6.28-10-5a12.14,12.14,0,0,0-9,9,26.55,26.55,0,0,0-1.1,7.23v16.32a3.27,3.27,0,0,0,.79,2.75l.26.26h-7.69l.08-.2c.09-.24.19-.46.28-.68a7.83,7.83,0,0,0,.48-1.35,6.8,6.8,0,0,0,.06-1.43c0-.17,0-.35,0-.53v-9.42q0-8.49,0-17c0-.79,0-1.58.05-2.28,0-.31,0-.6,0-.86v-.06l0,0a2.78,2.78,0,0,1,2.2-1l.4,0a13.74,13.74,0,0,0,1.7-.33l.89-.19.13,0,0,.13a11,11,0,0,1,.27,3.55,11.31,11.31,0,0,0,.14,3c.34.08.45-.11.59-.36a.75.75,0,0,1,.07-.12c.16-.26.31-.53.46-.8l.38-.67a12.38,12.38,0,0,1,8.53-6.12,17.3,17.3,0,0,1,9.22.44,14.47,14.47,0,0,1,3.28,1.66,8.5,8.5,0,0,1,4,7.53c0,2.91-.06,5.87-.07,8.72v1.5q0,5.38,0,10.79a13.38,13.38,0,0,0,.05,1.4,3.11,3.11,0,0,0,2.22,3.06,8.28,8.28,0,0,1,.88.34l.51.21.3.12-.28.15a8.42,8.42,0,0,1-3.84.92M913.41,537c3.34,0,5.75,1.86,7.34,5.62a11.83,11.83,0,0,1,.75,3.63c.1,1.19.08,2.4.07,3.58,0,.41,0,.83,0,1.25,0,1.58,0,3.16,0,4.74,0,3.38,0,6.87,0,10.3a24.15,24.15,0,0,0,.27,3.06l.07.59a3.27,3.27,0,0,0,1.63,2.38,7.24,7.24,0,0,0,6.66.11l-.21-.09c-.31-.13-.58-.24-.85-.33a3.36,3.36,0,0,1-2.43-3.32c0-.48-.06-1-.06-1.43,0-3.59,0-7.19,0-10.78v-1.5c0-2.86,0-5.81.07-8.72a8.21,8.21,0,0,0-3.85-7.28,14.5,14.5,0,0,0-3.21-1.63,17.06,17.06,0,0,0-9.07-.43,12.14,12.14,0,0,0-8.34,6l-.38.67c-.15.27-.3.54-.46.8l-.07.11a.75.75,0,0,1-1,.48l-.08,0,0-.08a11.11,11.11,0,0,1-.18-3.15,10.91,10.91,0,0,0-.21-3.32l-.75.16a16.48,16.48,0,0,1-1.73.34l-.41,0a2.48,2.48,0,0,0-2,.84c0,.25,0,.52,0,.81,0,.69-.05,1.48-.05,2.27v26.39c0,.18,0,.35,0,.52a6.27,6.27,0,0,1-.07,1.5,8.16,8.16,0,0,1-.49,1.41c-.07.15-.13.3-.2.46h6.56a3.86,3.86,0,0,1-.65-2.72c0-.14,0-.28,0-.42V553.92a26.31,26.31,0,0,1,1.11-7.31,12.4,12.4,0,0,1,9.23-9.19,11.4,11.4,0,0,1,3-.43"></path><path class="cls-1" d="M879.07,549.18a12.19,12.19,0,0,0-.91-7.19c-1.36-2.83-3.45-4.74-6.69-4.85C868,537,865,538,863,541.19c-.54.88-.92,1.86-1.47,2.74-.66,1.07-1.65,1.4-2.32.9s-.74-1.3-.24-2.33a8.7,8.7,0,0,1,1.26-1.86,12.15,12.15,0,0,1,7.2-4.1,19.57,19.57,0,0,1,11.32,1c3.82,1.63,5.92,4.5,5.91,8.78,0,6.34-.06,12.69-.08,19,0,.95,0,1.9,0,2.84a3.39,3.39,0,0,0,2.62,3.57c.42.11.83.29,1.54.55a8.62,8.62,0,0,1-6.59.42c-1.57-.47-2.39-1.71-3-3.39l-1.75,1a20.41,20.41,0,0,1-15.06,2.81c-6.62-1.26-9.36-9.79-5.76-14.84a15.9,15.9,0,0,1,5.27-4.59,33.47,33.47,0,0,1,11.4-3.78c1.84-.29,3.68-.5,5.72-.77m0,1.33c-2.8-.4-5.24.33-7.69.81a18.5,18.5,0,0,0-6.85,3.11,10.27,10.27,0,0,0-4.62,8.88c-.07,4.17,2,7.08,5.88,8.28,4.36,1.35,8.28.28,11.84-2.46a3.86,3.86,0,0,0,1.62-3.38c-.08-4.54,0-9.07,0-13.61,0-.46-.08-.92-.14-1.63"></path><path class="cls-1" d="M866.55,573.7a21.82,21.82,0,0,1-4.14-.4,9,9,0,0,1-6.72-5.81,9.83,9.83,0,0,1,.87-9.25,16.15,16.15,0,0,1,5.32-4.64,33.57,33.57,0,0,1,11.45-3.79c1.25-.2,2.5-.36,3.82-.53l1.79-.24a11.94,11.94,0,0,0-.91-7c-1.49-3.11-3.64-4.67-6.57-4.77-3.84-.13-6.57,1.17-8.31,4a13.65,13.65,0,0,0-.73,1.36c-.23.46-.47.93-.74,1.38a2.39,2.39,0,0,1-1.5,1.17,1.24,1.24,0,0,1-1-.23c-.7-.51-.8-1.45-.28-2.51a8.81,8.81,0,0,1,1.28-1.9,12.26,12.26,0,0,1,7.29-4.14,19.47,19.47,0,0,1,11.39,1c4,1.7,6,4.7,6,8.91q0,5.87-.05,11.73c0,2.43,0,4.87,0,7.3,0,1,0,1.94,0,2.84a3.23,3.23,0,0,0,2.51,3.43,6.94,6.94,0,0,1,.9.31l.65.24.33.12-.32.15a8.71,8.71,0,0,1-6.69.43c-1.4-.41-2.33-1.44-3-3.31l-.48.27-1.11.67a20.69,20.69,0,0,1-11,3.22M870.94,537h.53c3,.1,5.28,1.71,6.82,4.93a12.22,12.22,0,0,1,.92,7.26v.12h-.11l-1.9.25c-1.32.17-2.57.33-3.81.53A33.05,33.05,0,0,0,862,553.86a15.64,15.64,0,0,0-5.22,4.55,9.55,9.55,0,0,0-.84,9,8.79,8.79,0,0,0,6.5,5.63,20.18,20.18,0,0,0,15-2.78c.35-.22.71-.43,1.12-.67l.78-.46.06.17c.64,1.88,1.52,2.9,2.87,3.3a8.47,8.47,0,0,0,6.15-.27l-.31-.12c-.34-.12-.61-.23-.88-.3a3.52,3.52,0,0,1-2.72-3.7c0-.9,0-1.87,0-2.85,0-2.43,0-4.87,0-7.3q0-5.87,0-11.73c0-4.08-1.95-7-5.83-8.64a19.26,19.26,0,0,0-11.23-1,12,12,0,0,0-7.12,4,8.88,8.88,0,0,0-1.24,1.84c-.45.92-.38,1.72.19,2.15a1,1,0,0,0,.82.17,2.12,2.12,0,0,0,1.3-1c.27-.43.5-.9.73-1.35a13.27,13.27,0,0,1,.74-1.39c1.72-2.77,4.35-4.12,8-4.12m-1.45,35.32a12.85,12.85,0,0,1-3.73-.57c-3.92-1.21-6-4.2-6-8.43a10.5,10.5,0,0,1,4.69-9,18.61,18.61,0,0,1,6.91-3.13l1.3-.26a17.83,17.83,0,0,1,6.43-.55l.12,0v.12c0,.24,0,.45.06.65a9.58,9.58,0,0,1,.08,1c0,1.46,0,2.92,0,4.38,0,3,0,6.15,0,9.23a4,4,0,0,1-1.67,3.5,13.41,13.41,0,0,1-8.25,3.06m8-21.77a22.29,22.29,0,0,0-4.7.65l-1.31.28a18.09,18.09,0,0,0-6.8,3.08,10.23,10.23,0,0,0-4.56,8.77c-.06,4.14,1.93,6.95,5.78,8.13,4.11,1.27,7.93.47,11.71-2.43a3.73,3.73,0,0,0,1.56-3.27c0-3.07,0-6.2,0-9.23q0-2.19,0-4.38a9,9,0,0,0-.07-1c0-.16,0-.34,0-.54a11.3,11.3,0,0,0-1.52-.1"></path><path class="cls-1" d="M735.5,536.29a16.65,16.65,0,0,1,12.14,4.22,17.83,17.83,0,0,1,5.8,11.33,19.39,19.39,0,0,1-3.34,14.27,16,16,0,0,1-12.61,6.95,23.43,23.43,0,0,1-5.86-.22c-7.15-1.36-11.54-5.86-13.52-12.82a20.06,20.06,0,0,1,.47-12.28,16.64,16.64,0,0,1,15.5-11.45c.47,0,.94,0,1.42,0m-12.71,18.62a24.74,24.74,0,0,0,1.25,7.76,17.53,17.53,0,0,0,3.06,5.69,11.09,11.09,0,0,0,17.36-.23,18.13,18.13,0,0,0,2.54-4.38,24.47,24.47,0,0,0,.07-18,15.81,15.81,0,0,0-3.83-5.87,10.84,10.84,0,0,0-15,0,15.66,15.66,0,0,0-3.83,5.87,25.82,25.82,0,0,0-1.62,9.21"></path><path class="cls-1" d="M735.27,573.29a19.56,19.56,0,0,1-3.67-.31c-7-1.32-11.57-5.67-13.63-12.92a20.27,20.27,0,0,1,.47-12.37,16.77,16.77,0,0,1,15.64-11.55h1.42a16.79,16.79,0,0,1,12.23,4.26,18,18,0,0,1,5.85,11.42,19.49,19.49,0,0,1-3.36,14.38,16.12,16.12,0,0,1-12.72,7c-.63,0-1.4.08-2.23.08m-.68-36.86h-.5a16.49,16.49,0,0,0-15.38,11.36,20,20,0,0,0-.46,12.19c2,7.13,6.54,11.41,13.41,12.71a23.66,23.66,0,0,0,5.82.22A15.81,15.81,0,0,0,750,566a19.23,19.23,0,0,0,3.31-14.17,17.7,17.7,0,0,0-5.75-11.24,16.54,16.54,0,0,0-12-4.19h-.92m1.13,36.15a11.13,11.13,0,0,1-8.73-4.13,17.44,17.44,0,0,1-3.09-5.74,24.3,24.3,0,0,1-1.25-7.81,25.8,25.8,0,0,1,1.63-9.26,15.76,15.76,0,0,1,3.86-5.92,11,11,0,0,1,15.2,0,16.1,16.1,0,0,1,3.87,5.93,24.68,24.68,0,0,1-.07,18.11,18.67,18.67,0,0,1-2.56,4.42,11,11,0,0,1-8.69,4.36h-.17m0-35.57a10.61,10.61,0,0,0-7.37,2.92,15.67,15.67,0,0,0-3.79,5.82,25.37,25.37,0,0,0-1.61,9.15h0a24,24,0,0,0,1.24,7.71,17.28,17.28,0,0,0,3,5.65,11,11,0,0,0,17.13-.23,18.43,18.43,0,0,0,2.52-4.35,24.35,24.35,0,0,0,.06-17.89,15.5,15.5,0,0,0-3.79-5.82,10.67,10.67,0,0,0-7.43-3"></path><path class="cls-1" d="M710.56,569.14a10.34,10.34,0,0,1-1,.78,21.4,21.4,0,0,1-14.82,3,29,29,0,0,1-5.47-1.21c-8-2.75-13-8.4-15-16.63a29.9,29.9,0,0,1,.85-17.61c3-8.23,8.68-13.24,17.27-14.86a21.82,21.82,0,0,1,15.46,2.34,14.21,14.21,0,0,1,4.31,3.59A10.07,10.07,0,0,1,713.5,531a1.59,1.59,0,0,1-.83,1.91,1.39,1.39,0,0,1-1.81-.15,8.72,8.72,0,0,1-1.43-1.72c-.4-.63-.65-1.36-1-2a10.15,10.15,0,0,0-7.1-5.48,22.47,22.47,0,0,0-7.26-.37,12.56,12.56,0,0,0-7.25,3.44,20.76,20.76,0,0,0-5.06,7.08,32.8,32.8,0,0,0-2.14,20.26,24.72,24.72,0,0,0,4.25,9.5c5.27,7.21,13.15,9.79,21.63,7.25,1.67-.5,3.27-1.19,4.91-1.79l.16.26"></path><path class="cls-1" d="M698.29,573.28a27,27,0,0,1-3.54-.25,29.58,29.58,0,0,1-5.49-1.22c-8-2.75-13.06-8.38-15.1-16.74a30.06,30.06,0,0,1,.85-17.69c3-8.32,8.86-13.34,17.38-15A21.77,21.77,0,0,1,708,524.79a14,14,0,0,1,4.35,3.62,9.63,9.63,0,0,1,1.33,2.51,1.73,1.73,0,0,1-.88,2.09,1.55,1.55,0,0,1-2-.17,9.12,9.12,0,0,1-1.45-1.75,10.19,10.19,0,0,1-.63-1.23c-.12-.27-.25-.54-.39-.8a10,10,0,0,0-7-5.4,22.45,22.45,0,0,0-7.2-.38,12.54,12.54,0,0,0-7.17,3.4,20.68,20.68,0,0,0-5,7,32.66,32.66,0,0,0-2.13,20.17,24.37,24.37,0,0,0,4.22,9.44c5.19,7.11,13,9.73,21.47,7.2,1.13-.34,2.26-.78,3.35-1.2l1.55-.59.11,0,.29.48-.1.08-.3.25a5.2,5.2,0,0,1-.68.54,20.92,20.92,0,0,1-11.38,3.23m-1-51a26,26,0,0,0-4.87.48c-8.42,1.59-14.19,6.55-17.17,14.76a29.73,29.73,0,0,0-.83,17.52c2,8.26,7,13.82,14.9,16.53a28.33,28.33,0,0,0,5.44,1.2,21.37,21.37,0,0,0,14.72-2.93,4.41,4.41,0,0,0,.65-.51l.21-.18,0-.05-1.43.55c-1.1.42-2.23.86-3.38,1.2-8.58,2.57-16.52-.09-21.78-7.3a24.85,24.85,0,0,1-4.28-9.56,33,33,0,0,1,2.15-20.35,20.9,20.9,0,0,1,5.09-7.13,12.75,12.75,0,0,1,7.34-3.48,22.52,22.52,0,0,1,7.3.38,10.26,10.26,0,0,1,7.2,5.55c.14.26.27.55.39.82a10.32,10.32,0,0,0,.62,1.19,8.18,8.18,0,0,0,1.4,1.69,1.25,1.25,0,0,0,1.63.14,1.44,1.44,0,0,0,.77-1.74,9.66,9.66,0,0,0-1.29-2.43,13.82,13.82,0,0,0-4.26-3.55,20.58,20.58,0,0,0-10.49-2.8"></path><path class="cls-1" d="M545.58,551.46l6,.19c.06.82-.49.77-.91.78-1.67.06-3.34.07-5.14.11a15.68,15.68,0,0,0-.28,2c0,6.72,0,13.44,0,20.16a7.88,7.88,0,0,0,.12,1.69,7.75,7.75,0,0,0,.64,1.39c-1.21.51-2.41.23-3.57.28s-2.23,0-3.52,0a11.74,11.74,0,0,0,.86-2.09,8.69,8.69,0,0,0,.07-2V552.91l-2.07-.71c-.11-.39-.11-.39,1.79-1,.45-1.25.14-2.58.23-3.88a42.54,42.54,0,0,1,.31-4.81,11.72,11.72,0,0,1,8.37-9.75c5.81-1.87,11.27-1.11,16.08,2.93a8.86,8.86,0,0,1,1.64,1.91,1.68,1.68,0,0,1-.35,2.5,1.73,1.73,0,0,1-2.45-.59c-.41-.51-.68-1.13-1.09-1.65a21,21,0,0,0-2.52-3,9,9,0,0,0-11.86,0,6.28,6.28,0,0,0-2.11,3.27c-.07.28-.15.55-.22.83a52.34,52.34,0,0,0,0,12.45"></path><path class="cls-1" d="M544.18,578.28l-.76,0c-.35,0-.68,0-1,0-.77,0-1.54,0-2.37,0h-1.38l.09-.2c.11-.26.22-.5.33-.73a6.46,6.46,0,0,0,.52-1.34,6.15,6.15,0,0,0,.08-1.43c0-.17,0-.35,0-.52V553l-2-.71,0-.07c-.15-.53-.08-.56,1.82-1.14a6.67,6.67,0,0,0,.2-2.41,12.34,12.34,0,0,1,0-1.36c0-.54,0-1.09.07-1.63a22.83,22.83,0,0,1,.24-3.19,11.93,11.93,0,0,1,8.48-9.87c6.09-2,11.54-1,16.21,3a8.87,8.87,0,0,1,1.67,1.95,1.83,1.83,0,0,1-.39,2.7,1.86,1.86,0,0,1-2.64-.61,6.84,6.84,0,0,1-.57-.87,8.13,8.13,0,0,0-.52-.78l-.59-.77a13.21,13.21,0,0,0-1.92-2.22A8.9,8.9,0,0,0,548,535a6,6,0,0,0-2.07,3.19l-.08.29c-.05.18-.09.35-.13.53a53.31,53.31,0,0,0,0,12.27l6,.2v.13a.88.88,0,0,1-.17.7,1,1,0,0,1-.78.24h-.09c-1.21,0-2.42.06-3.69.08l-1.33,0c0,.22-.07.42-.1.61a6.88,6.88,0,0,0-.16,1.29c0,6.89,0,13.74,0,20.16a7.6,7.6,0,0,0,.12,1.66,3.48,3.48,0,0,0,.36.84c.09.16.18.33.27.52l.06.14L546,578a4.66,4.66,0,0,1-1.85.32m-1.5-.34.75,0a5.68,5.68,0,0,0,2.34-.22c-.06-.13-.13-.24-.19-.36a3.79,3.79,0,0,1-.39-.92,8.16,8.16,0,0,1-.12-1.71c0-6.43,0-13.28,0-20.17a7.89,7.89,0,0,1,.16-1.34q.06-.35.12-.72v-.13l1.59,0c1.27,0,2.47,0,3.68-.08h.09c.23,0,.46,0,.57-.14a.53.53,0,0,0,.11-.34l-6-.2,0-.12a53.38,53.38,0,0,1,0-12.51c0-.18.09-.36.14-.54l.07-.29a6.37,6.37,0,0,1,2.17-3.34,9.21,9.21,0,0,1,12,0,14.27,14.27,0,0,1,2,2.27c.19.26.38.51.58.76s.37.55.54.82a7.45,7.45,0,0,0,.55.83,1.59,1.59,0,0,0,2.24.56,1.55,1.55,0,0,0,.32-2.3,8.76,8.76,0,0,0-1.62-1.88c-4.58-3.85-9.95-4.83-15.93-2.9a11.53,11.53,0,0,0-8.28,9.64,22.16,22.16,0,0,0-.24,3.15c0,.54,0,1.09-.07,1.64a11.8,11.8,0,0,0,0,1.33,6.91,6.91,0,0,1-.24,2.59l0,.07-.07,0c-1.58.49-1.74.54-1.71.72l2.1.73V574c0,.17,0,.34,0,.51a6.24,6.24,0,0,1-.08,1.5,6.94,6.94,0,0,1-.55,1.41l-.23.51h.94c.81,0,1.58,0,2.35,0h.28"></path><path class="cls-1" d="M534,576.91c-4.27,2.23-7.51,1.26-9.82-2.76a19.07,19.07,0,0,1-11.93,4.2c-3,0-3.58,0-5.22-.85a12.73,12.73,0,0,1,.65-1.21,7.47,7.47,0,0,1,.65-.75,33.63,33.63,0,0,0,4.95,1.34,12.22,12.22,0,0,0,10.24-3.58,2.67,2.67,0,0,0,1-2q0-7.82-.09-15.61c0-.17-.15-.33-.34-.72-2.61-.38-5.21.37-7.83,1s-5,2.09-7.37,3.66l-1-1.56a23.16,23.16,0,0,1,7.91-3c2.72-.59,5.49-1,8.41-1.47a10.49,10.49,0,0,0-.82-7.05,10,10,0,0,0-2.24-3.21,6.9,6.9,0,0,0-6.21-1.89c-3.34.58-6,2.12-7.32,5.45a9.29,9.29,0,0,1-.95,1.72,1.55,1.55,0,0,1-.88.64,1.87,1.87,0,0,1-1.31-.15,1.4,1.4,0,0,1-.44-1.22,10.07,10.07,0,0,1,1.42-2.72,11.67,11.67,0,0,1,6-4,18.53,18.53,0,0,1,12.1.51c4.14,1.59,6.2,4.72,6.37,9.12.09,2.26,0,4.54-.07,6.81-.06,4.44-.15,8.89-.19,13.33a24.3,24.3,0,0,0,.19,2.55,3.21,3.21,0,0,0,3,3.2c.27,0,.54.11,1.16.23"></path><path class="cls-1" d="M511.46,578.5a7.86,7.86,0,0,1-4.48-.87l-.13-.06.07-.14.18-.37c.15-.28.3-.58.48-.85a4,4,0,0,1,.49-.58l.17-.19.06-.06.09,0c.56.16,1.1.33,1.62.5a18.22,18.22,0,0,0,3.31.83,12,12,0,0,0,10.12-3.54,2.52,2.52,0,0,0,.93-1.86c0-6.07-.06-11-.09-15.61a.8.8,0,0,0-.14-.29l-.16-.3a18.71,18.71,0,0,0-6.63.72l-1.07.24c-2.62.58-4.86,2-7.22,3.58l-.22.15L507.71,558l.12-.08a23,23,0,0,1,8-3c1.89-.41,3.77-.71,5.76-1l2.56-.42a10.32,10.32,0,0,0-.83-6.87,10,10,0,0,0-2.21-3.16,6.79,6.79,0,0,0-6.09-1.84c-3.64.63-6,2.38-7.21,5.35a8.72,8.72,0,0,1-1,1.76,1.75,1.75,0,0,1-1,.69,1.92,1.92,0,0,1-1.43-.18,1.53,1.53,0,0,1-.48-1.38,10,10,0,0,1,1.43-2.76,11.89,11.89,0,0,1,6.08-4,18.68,18.68,0,0,1,12.19.52c4.11,1.57,6.29,4.68,6.47,9.24.06,1.59,0,3.22,0,4.78,0,.68,0,1.36-.05,2l-.06,4c-.05,3.07-.1,6.25-.14,9.37a17.89,17.89,0,0,0,.14,1.94l.06.59a3.06,3.06,0,0,0,2.85,3.08c.17,0,.35.06.61.11l.55.11.42.08-.38.2c-4.22,2.21-7.56,1.31-9.92-2.67a19.3,19.3,0,0,1-11.89,4.13h-.81m-4.21-1.07c1.52.75,2.11.8,5,.77A19,19,0,0,0,524.11,574l.13-.1.09.14c2.23,3.88,5.26,4.83,9.23,2.9l-.13,0-.59-.11a3.38,3.38,0,0,1-3.11-3.34c0-.2,0-.39-.06-.59a18.27,18.27,0,0,1-.13-2c0-3.13.09-6.31.13-9.38,0-1.32.05-2.64.07-4,0-.68,0-1.35,0-2,.05-1.57.09-3.19,0-4.77-.18-4.43-2.29-7.45-6.28-9a18.4,18.4,0,0,0-12-.5,11.57,11.57,0,0,0-5.93,3.93,10.09,10.09,0,0,0-1.39,2.68,1.27,1.27,0,0,0,.39,1.05,1.7,1.7,0,0,0,1.19.12,1.45,1.45,0,0,0,.79-.57,9.25,9.25,0,0,0,.93-1.7c1.25-3.08,3.68-4.89,7.44-5.53a7,7,0,0,1,6.33,1.92,10.41,10.41,0,0,1,2.28,3.26,10.67,10.67,0,0,1,.82,7.15l0,.09-.09,0-2.67.44c-2,.32-3.86.62-5.74,1a23,23,0,0,0-7.74,2.9l.82,1.31c2.38-1.56,4.63-3,7.29-3.61l1.06-.24a18.78,18.78,0,0,1,6.82-.71h.07l0,.07c.07.14.13.25.19.35a.87.87,0,0,1,.17.44c0,4.58.06,9.54.09,15.6a2.81,2.81,0,0,1-1,2.08A12.32,12.32,0,0,1,513.28,577a17.52,17.52,0,0,1-3.35-.85l-1.53-.47-.12.13a3.44,3.44,0,0,0-.46.53,9.37,9.37,0,0,0-.46.83,1.63,1.63,0,0,1-.11.23"></path><path class="cls-1" d="M947.71,572.14l-15.38-34.7a45.13,45.13,0,0,1,6.66-.12,3.17,3.17,0,0,0-.14,2.58c3.85,8.41,7.65,16.85,11.48,25.27a2.88,2.88,0,0,0,.45.52c.26-.23.61-.41.75-.69q6.32-12.68,12.57-25.38a3,3,0,0,0,.15-.65c-.22-.41-.48-.89-.8-1.46a4.27,4.27,0,0,1,2.78,0l-9.79,19.42c-3.27,6.49-6.5,13-9.79,19.48-1,2-2.16,4-3.32,5.92a21.31,21.31,0,0,1-1.93,2.44c-4.41,5.26-11.57,5-16.1,2.18a11.69,11.69,0,0,1-2.33-2,1.44,1.44,0,0,1-.06-2,1.64,1.64,0,0,1,2-.34,9,9,0,0,1,1.5,1.26c.6.59,1.11,1.28,1.74,1.85a7.9,7.9,0,0,0,10.08.88,12.28,12.28,0,0,0,3.27-3.08,52,52,0,0,0,6.17-11.27"></path><path class="cls-1" d="M932.32,589a13.7,13.7,0,0,1-7.09-2,11.18,11.18,0,0,1-2.36-2,1.58,1.58,0,0,1-.07-2.25,1.79,1.79,0,0,1,2.23-.36,9.06,9.06,0,0,1,1.52,1.28c.27.26.52.55.77.83s.62.7,1,1a7.8,7.8,0,0,0,9.91.86,11.92,11.92,0,0,0,3.23-3,51.89,51.89,0,0,0,6.13-11.18l-15.43-34.82.19,0a31.15,31.15,0,0,1,5-.15c.56,0,1.13,0,1.7,0h.21l-.07.2a3,3,0,0,0-.15,2.47c2.66,5.81,5.35,11.73,7.94,17.45l3.54,7.82a1.12,1.12,0,0,0,.22.26l.12.12.16-.13a1.39,1.39,0,0,0,.44-.43c4.36-8.77,8.77-17.69,12.57-25.37a1.31,1.31,0,0,0,.08-.34c0-.07,0-.15.05-.23l-.86-1.55.16-.06a4.3,4.3,0,0,1,2.87-.06l.17,0-3.08,6.11L956.57,557q-1.74,3.45-3.46,6.9c-2.07,4.12-4.21,8.39-6.33,12.58-.91,1.79-2,3.67-3.33,5.92a14.07,14.07,0,0,1-1.49,1.94l-.44.52a11.76,11.76,0,0,1-9.2,4.19m-8.16-6.57a1.54,1.54,0,0,0-1.14.51,1.28,1.28,0,0,0,.06,1.85,11.35,11.35,0,0,0,2.3,2c4.51,2.78,11.62,3,15.91-2.15l.45-.53a14.67,14.67,0,0,0,1.46-1.89c1.36-2.25,2.41-4.13,3.32-5.91,2.12-4.18,4.26-8.45,6.33-12.58q1.73-3.45,3.46-6.89c2.25-4.49,4.52-9,6.79-13.48l2.92-5.78a4.08,4.08,0,0,0-2.36,0l.75,1.35V539c0,.1,0,.19-.06.27a1.72,1.72,0,0,1-.11.42c-3.79,7.68-8.21,16.6-12.56,25.37a1.64,1.64,0,0,1-.54.54l-.25.2-.11.1-.1-.11-.2-.21a1.07,1.07,0,0,1-.27-.35c-1.19-2.6-2.37-5.21-3.55-7.81-2.59-5.73-5.27-11.65-7.93-17.46a3.07,3.07,0,0,1,.07-2.5c-.51,0-1,0-1.51,0a31.29,31.29,0,0,0-4.73.13l15.32,34.58,0,.06a52.12,52.12,0,0,1-6.19,11.3,12.09,12.09,0,0,1-3.31,3.12,8.07,8.07,0,0,1-10.25-.9,10.78,10.78,0,0,1-1-1c-.24-.27-.49-.55-.76-.81a8.49,8.49,0,0,0-1.47-1.24,1.32,1.32,0,0,0-.71-.2"></path><path class="cls-1" d="M631,578a5.28,5.28,0,0,0,1-3.69q0-13.74,0-27.49c0-1,0-2.06,0-3,1.62-1.23,3.55-.76,5.17-1.71a9.26,9.26,0,0,1,.24,3.25c0,9.45,0,18.9,0,28.34,0,1.47-.34,3,1.32,4.34Z"></path><path class="cls-1" d="M639.18,578.18h-8.42l.15-.28a5.14,5.14,0,0,0,.89-3.56q0-6.87,0-13.74V546.85c0-.71,0-1.43,0-2.12,0-.31,0-.62,0-.93v-.07l.06,0a6.24,6.24,0,0,1,2.89-1,6.59,6.59,0,0,0,2.3-.69l.15-.09.06.17a7.08,7.08,0,0,1,.26,2.64c0,.22,0,.44,0,.66q0,7.67,0,15.34,0,6.49,0,13c0,.22,0,.43,0,.65,0,1.27-.08,2.48,1.28,3.57Zm-7.93-.3h7.12a4.11,4.11,0,0,1-1.09-3.55c0-.22,0-.43,0-.64v-13q0-7.66,0-15.34c0-.22,0-.44,0-.67a7,7,0,0,0-.2-2.36,7.45,7.45,0,0,1-2.23.63,6.18,6.18,0,0,0-2.71.93c0,.28,0,.57,0,.86,0,.69,0,1.4,0,2.11v27.49a5.21,5.21,0,0,1-.85,3.54"></path><path class="cls-1" d="M492.94,513.19c.74.55,1.45,1.13,2.21,1.65a25.38,25.38,0,0,1,6.85,6.58,5.51,5.51,0,0,1,1.23,3.09,1.67,1.67,0,0,1-.86,1.64,1.32,1.32,0,0,1-1.75-.39,19.75,19.75,0,0,1-2-3c-.64-1.14-1.1-2.39-1.69-3.56a13.65,13.65,0,0,0-3.28-4.53,1.49,1.49,0,0,1-.66-1.45Z"></path><path class="cls-1" d="M501.69,526.48a1.5,1.5,0,0,1-1.18-.62,20.68,20.68,0,0,1-2.05-3c-.37-.66-.68-1.37-1-2.05-.22-.5-.45-1-.7-1.52a13.45,13.45,0,0,0-3.25-4.47,1.67,1.67,0,0,1-.71-1.54l-.32-.57.54.39.69.53c.49.37,1,.76,1.51,1.11a25.47,25.47,0,0,1,6.89,6.62,5.73,5.73,0,0,1,1.26,3.18,1.8,1.8,0,0,1-.94,1.77,1.62,1.62,0,0,1-.75.2m-8.61-13a1.45,1.45,0,0,0,.63,1.08,13.86,13.86,0,0,1,3.32,4.57c.26.5.49,1,.71,1.53.3.67.61,1.37,1,2a22.32,22.32,0,0,0,2,3,1.16,1.16,0,0,0,1.57.34,1.48,1.48,0,0,0,.78-1.5,5.4,5.4,0,0,0-1.2-3,25,25,0,0,0-6.81-6.54c-.52-.36-1-.75-1.52-1.13l-.47-.35"></path><path class="cls-1" d="M631.81,535.42a2.85,2.85,0,0,1,2.75-3,3,3,0,0,1,2.84,2.92,3,3,0,0,1-2.8,3,2.82,2.82,0,0,1-2.79-2.92"></path><path class="cls-1" d="M634.53,538.49a2.77,2.77,0,0,1-1.94-.81,3.19,3.19,0,0,1-.93-2.25,3,3,0,0,1,2.9-3.13h0a3.1,3.1,0,0,1,0,6.19h-.07m.05-5.89h0a2.69,2.69,0,0,0-2.6,2.82,2.88,2.88,0,0,0,.83,2.05,2.45,2.45,0,0,0,1.81.72,2.8,2.8,0,0,0,0-5.59"></path><path class="cls-1" d="M487.34,586h-1.95a2.3,2.3,0,0,1,2,0h0"></path><path class="cls-1" d="M487.45,586.2l-.13,0H484.6l.74-.29a2.45,2.45,0,0,1,2.08,0l.14.06Z"></path></svg>